<?xml version="1.0" encoding="utf-8" standalone="no"?>
<!DOCTYPE svg PUBLIC "-//W3C//DTD SVG 1.1//EN"
  "http://www.w3.org/Graphics/SVG/1.1/DTD/svg11.dtd">
<!-- Created with matplotlib (https://matplotlib.org/) -->
<svg height="360pt" version="1.1" viewBox="0 0 360 360" width="360pt" xmlns="http://www.w3.org/2000/svg" xmlns:xlink="http://www.w3.org/1999/xlink">
 <defs>
  <style type="text/css">
*{stroke-linecap:butt;stroke-linejoin:round;}
  </style>
 </defs>
 <g id="figure_1">
  <g id="patch_1">
   <path d="M 0 360 
L 360 360 
L 360 0 
L 0 0 
z
" style="fill:#ffffff;"/>
  </g>
  <g id="axes_1">
   <g id="patch_2">
    <path d="M 45 320.4 
L 324 320.4 
L 324 43.2 
L 45 43.2 
z
" style="fill:#ffffff;"/>
   </g>
   <g id="PathCollection_1">
    <defs>
     <path d="M 0 3 
C 0.795609 3 1.55874 2.683901 2.12132 2.12132 
C 2.683901 1.55874 3 0.795609 3 0 
C 3 -0.795609 2.683901 -1.55874 2.12132 -2.12132 
C 1.55874 -2.683901 0.795609 -3 0 -3 
C -0.795609 -3 -1.55874 -2.683901 -2.12132 -2.12132 
C -2.683901 -1.55874 -3 -0.795609 -3 0 
C -3 0.795609 -2.683901 1.55874 -2.12132 2.12132 
C -1.55874 2.683901 -0.795609 3 0 3 
z
" id="m716926f4b1" style="stroke:#1f77b4;stroke-opacity:0.15;"/>
    </defs>
    <g clip-path="url(#p837db5f929)">
     <use style="fill:#1f77b4;fill-opacity:0.15;stroke:#1f77b4;stroke-opacity:0.15;" x="45" xlink:href="#m716926f4b1" y="307.428999"/>
     <use style="fill:#1f77b4;fill-opacity:0.15;stroke:#1f77b4;stroke-opacity:0.15;" x="45" xlink:href="#m716926f4b1" y="307.428999"/>
     <use style="fill:#1f77b4;fill-opacity:0.15;stroke:#1f77b4;stroke-opacity:0.15;" x="45" xlink:href="#m716926f4b1" y="307.428999"/>
     <use style="fill:#1f77b4;fill-opacity:0.15;stroke:#1f77b4;stroke-opacity:0.15;" x="45" xlink:href="#m716926f4b1" y="307.428999"/>
     <use style="fill:#1f77b4;fill-opacity:0.15;stroke:#1f77b4;stroke-opacity:0.15;" x="45" xlink:href="#m716926f4b1" y="307.428999"/>
     <use style="fill:#1f77b4;fill-opacity:0.15;stroke:#1f77b4;stroke-opacity:0.15;" x="45" xlink:href="#m716926f4b1" y="307.428999"/>
     <use style="fill:#1f77b4;fill-opacity:0.15;stroke:#1f77b4;stroke-opacity:0.15;" x="45" xlink:href="#m716926f4b1" y="307.428999"/>
     <use style="fill:#1f77b4;fill-opacity:0.15;stroke:#1f77b4;stroke-opacity:0.15;" x="45" xlink:href="#m716926f4b1" y="307.428999"/>
     <use style="fill:#1f77b4;fill-opacity:0.15;stroke:#1f77b4;stroke-opacity:0.15;" x="114.75" xlink:href="#m716926f4b1" y="244.772127"/>
     <use style="fill:#1f77b4;fill-opacity:0.15;stroke:#1f77b4;stroke-opacity:0.15;" x="114.75" xlink:href="#m716926f4b1" y="244.772127"/>
     <use style="fill:#1f77b4;fill-opacity:0.15;stroke:#1f77b4;stroke-opacity:0.15;" x="114.75" xlink:href="#m716926f4b1" y="244.772127"/>
     <use style="fill:#1f77b4;fill-opacity:0.15;stroke:#1f77b4;stroke-opacity:0.15;" x="114.75" xlink:href="#m716926f4b1" y="244.772127"/>
     <use style="fill:#1f77b4;fill-opacity:0.15;stroke:#1f77b4;stroke-opacity:0.15;" x="114.75" xlink:href="#m716926f4b1" y="182.115255"/>
     <use style="fill:#1f77b4;fill-opacity:0.15;stroke:#1f77b4;stroke-opacity:0.15;" x="114.75" xlink:href="#m716926f4b1" y="182.115255"/>
     <use style="fill:#1f77b4;fill-opacity:0.15;stroke:#1f77b4;stroke-opacity:0.15;" x="114.75" xlink:href="#m716926f4b1" y="182.115255"/>
     <use style="fill:#1f77b4;fill-opacity:0.15;stroke:#1f77b4;stroke-opacity:0.15;" x="114.75" xlink:href="#m716926f4b1" y="182.115255"/>
     <use style="fill:#1f77b4;fill-opacity:0.15;stroke:#1f77b4;stroke-opacity:0.15;" x="114.75" xlink:href="#m716926f4b1" y="244.772127"/>
     <use style="fill:#1f77b4;fill-opacity:0.15;stroke:#1f77b4;stroke-opacity:0.15;" x="114.75" xlink:href="#m716926f4b1" y="244.772127"/>
     <use style="fill:#1f77b4;fill-opacity:0.15;stroke:#1f77b4;stroke-opacity:0.15;" x="114.75" xlink:href="#m716926f4b1" y="244.772127"/>
     <use style="fill:#1f77b4;fill-opacity:0.15;stroke:#1f77b4;stroke-opacity:0.15;" x="114.75" xlink:href="#m716926f4b1" y="244.772127"/>
     <use style="fill:#1f77b4;fill-opacity:0.15;stroke:#1f77b4;stroke-opacity:0.15;" x="114.75" xlink:href="#m716926f4b1" y="244.772127"/>
     <use style="fill:#1f77b4;fill-opacity:0.15;stroke:#1f77b4;stroke-opacity:0.15;" x="114.75" xlink:href="#m716926f4b1" y="244.772127"/>
     <use style="fill:#1f77b4;fill-opacity:0.15;stroke:#1f77b4;stroke-opacity:0.15;" x="114.75" xlink:href="#m716926f4b1" y="244.772127"/>
     <use style="fill:#1f77b4;fill-opacity:0.15;stroke:#1f77b4;stroke-opacity:0.15;" x="114.75" xlink:href="#m716926f4b1" y="244.772127"/>
     <use style="fill:#1f77b4;fill-opacity:0.15;stroke:#1f77b4;stroke-opacity:0.15;" x="114.75" xlink:href="#m716926f4b1" y="244.772127"/>
     <use style="fill:#1f77b4;fill-opacity:0.15;stroke:#1f77b4;stroke-opacity:0.15;" x="114.75" xlink:href="#m716926f4b1" y="244.772127"/>
     <use style="fill:#1f77b4;fill-opacity:0.15;stroke:#1f77b4;stroke-opacity:0.15;" x="114.75" xlink:href="#m716926f4b1" y="244.772127"/>
     <use style="fill:#1f77b4;fill-opacity:0.15;stroke:#1f77b4;stroke-opacity:0.15;" x="114.75" xlink:href="#m716926f4b1" y="244.772127"/>
     <use style="fill:#1f77b4;fill-opacity:0.15;stroke:#1f77b4;stroke-opacity:0.15;" x="114.75" xlink:href="#m716926f4b1" y="244.772127"/>
     <use style="fill:#1f77b4;fill-opacity:0.15;stroke:#1f77b4;stroke-opacity:0.15;" x="114.75" xlink:href="#m716926f4b1" y="244.772127"/>
     <use style="fill:#1f77b4;fill-opacity:0.15;stroke:#1f77b4;stroke-opacity:0.15;" x="114.75" xlink:href="#m716926f4b1" y="182.115255"/>
     <use style="fill:#1f77b4;fill-opacity:0.15;stroke:#1f77b4;stroke-opacity:0.15;" x="114.75" xlink:href="#m716926f4b1" y="244.772127"/>
     <use style="fill:#1f77b4;fill-opacity:0.15;stroke:#1f77b4;stroke-opacity:0.15;" x="114.75" xlink:href="#m716926f4b1" y="244.772127"/>
     <use style="fill:#1f77b4;fill-opacity:0.15;stroke:#1f77b4;stroke-opacity:0.15;" x="184.5" xlink:href="#m716926f4b1" y="182.115255"/>
     <use style="fill:#1f77b4;fill-opacity:0.15;stroke:#1f77b4;stroke-opacity:0.15;" x="184.5" xlink:href="#m716926f4b1" y="182.115255"/>
     <use style="fill:#1f77b4;fill-opacity:0.15;stroke:#1f77b4;stroke-opacity:0.15;" x="184.5" xlink:href="#m716926f4b1" y="182.115255"/>
     <use style="fill:#1f77b4;fill-opacity:0.15;stroke:#1f77b4;stroke-opacity:0.15;" x="184.5" xlink:href="#m716926f4b1" y="182.115255"/>
     <use style="fill:#1f77b4;fill-opacity:0.15;stroke:#1f77b4;stroke-opacity:0.15;" x="184.5" xlink:href="#m716926f4b1" y="182.115255"/>
     <use style="fill:#1f77b4;fill-opacity:0.15;stroke:#1f77b4;stroke-opacity:0.15;" x="184.5" xlink:href="#m716926f4b1" y="182.115255"/>
     <use style="fill:#1f77b4;fill-opacity:0.15;stroke:#1f77b4;stroke-opacity:0.15;" x="184.5" xlink:href="#m716926f4b1" y="182.115255"/>
     <use style="fill:#1f77b4;fill-opacity:0.15;stroke:#1f77b4;stroke-opacity:0.15;" x="184.5" xlink:href="#m716926f4b1" y="182.115255"/>
     <use style="fill:#1f77b4;fill-opacity:0.15;stroke:#1f77b4;stroke-opacity:0.15;" x="184.5" xlink:href="#m716926f4b1" y="182.115255"/>
     <use style="fill:#1f77b4;fill-opacity:0.15;stroke:#1f77b4;stroke-opacity:0.15;" x="184.5" xlink:href="#m716926f4b1" y="182.115255"/>
     <use style="fill:#1f77b4;fill-opacity:0.15;stroke:#1f77b4;stroke-opacity:0.15;" x="184.5" xlink:href="#m716926f4b1" y="182.115255"/>
     <use style="fill:#1f77b4;fill-opacity:0.15;stroke:#1f77b4;stroke-opacity:0.15;" x="184.5" xlink:href="#m716926f4b1" y="182.115255"/>
     <use style="fill:#1f77b4;fill-opacity:0.15;stroke:#1f77b4;stroke-opacity:0.15;" x="184.5" xlink:href="#m716926f4b1" y="182.115255"/>
     <use style="fill:#1f77b4;fill-opacity:0.15;stroke:#1f77b4;stroke-opacity:0.15;" x="184.5" xlink:href="#m716926f4b1" y="182.115255"/>
     <use style="fill:#1f77b4;fill-opacity:0.15;stroke:#1f77b4;stroke-opacity:0.15;" x="184.5" xlink:href="#m716926f4b1" y="182.115255"/>
     <use style="fill:#1f77b4;fill-opacity:0.15;stroke:#1f77b4;stroke-opacity:0.15;" x="184.5" xlink:href="#m716926f4b1" y="56.801511"/>
     <use style="fill:#1f77b4;fill-opacity:0.15;stroke:#1f77b4;stroke-opacity:0.15;" x="184.5" xlink:href="#m716926f4b1" y="182.115255"/>
     <use style="fill:#1f77b4;fill-opacity:0.15;stroke:#1f77b4;stroke-opacity:0.15;" x="184.5" xlink:href="#m716926f4b1" y="244.772127"/>
     <use style="fill:#1f77b4;fill-opacity:0.15;stroke:#1f77b4;stroke-opacity:0.15;" x="184.5" xlink:href="#m716926f4b1" y="182.115255"/>
     <use style="fill:#1f77b4;fill-opacity:0.15;stroke:#1f77b4;stroke-opacity:0.15;" x="184.5" xlink:href="#m716926f4b1" y="182.115255"/>
     <use style="fill:#1f77b4;fill-opacity:0.15;stroke:#1f77b4;stroke-opacity:0.15;" x="184.5" xlink:href="#m716926f4b1" y="182.115255"/>
     <use style="fill:#1f77b4;fill-opacity:0.15;stroke:#1f77b4;stroke-opacity:0.15;" x="184.5" xlink:href="#m716926f4b1" y="182.115255"/>
     <use style="fill:#1f77b4;fill-opacity:0.15;stroke:#1f77b4;stroke-opacity:0.15;" x="184.5" xlink:href="#m716926f4b1" y="182.115255"/>
     <use style="fill:#1f77b4;fill-opacity:0.15;stroke:#1f77b4;stroke-opacity:0.15;" x="184.5" xlink:href="#m716926f4b1" y="182.115255"/>
     <use style="fill:#1f77b4;fill-opacity:0.15;stroke:#1f77b4;stroke-opacity:0.15;" x="184.5" xlink:href="#m716926f4b1" y="182.115255"/>
     <use style="fill:#1f77b4;fill-opacity:0.15;stroke:#1f77b4;stroke-opacity:0.15;" x="184.5" xlink:href="#m716926f4b1" y="244.772127"/>
     <use style="fill:#1f77b4;fill-opacity:0.15;stroke:#1f77b4;stroke-opacity:0.15;" x="184.5" xlink:href="#m716926f4b1" y="182.115255"/>
     <use style="fill:#1f77b4;fill-opacity:0.15;stroke:#1f77b4;stroke-opacity:0.15;" x="184.5" xlink:href="#m716926f4b1" y="182.115255"/>
     <use style="fill:#1f77b4;fill-opacity:0.15;stroke:#1f77b4;stroke-opacity:0.15;" x="184.5" xlink:href="#m716926f4b1" y="182.115255"/>
     <use style="fill:#1f77b4;fill-opacity:0.15;stroke:#1f77b4;stroke-opacity:0.15;" x="184.5" xlink:href="#m716926f4b1" y="182.115255"/>
     <use style="fill:#1f77b4;fill-opacity:0.15;stroke:#1f77b4;stroke-opacity:0.15;" x="184.5" xlink:href="#m716926f4b1" y="182.115255"/>
     <use style="fill:#1f77b4;fill-opacity:0.15;stroke:#1f77b4;stroke-opacity:0.15;" x="184.5" xlink:href="#m716926f4b1" y="182.115255"/>
     <use style="fill:#1f77b4;fill-opacity:0.15;stroke:#1f77b4;stroke-opacity:0.15;" x="184.5" xlink:href="#m716926f4b1" y="182.115255"/>
     <use style="fill:#1f77b4;fill-opacity:0.15;stroke:#1f77b4;stroke-opacity:0.15;" x="184.5" xlink:href="#m716926f4b1" y="182.115255"/>
     <use style="fill:#1f77b4;fill-opacity:0.15;stroke:#1f77b4;stroke-opacity:0.15;" x="184.5" xlink:href="#m716926f4b1" y="182.115255"/>
     <use style="fill:#1f77b4;fill-opacity:0.15;stroke:#1f77b4;stroke-opacity:0.15;" x="184.5" xlink:href="#m716926f4b1" y="182.115255"/>
     <use style="fill:#1f77b4;fill-opacity:0.15;stroke:#1f77b4;stroke-opacity:0.15;" x="184.5" xlink:href="#m716926f4b1" y="182.115255"/>
     <use style="fill:#1f77b4;fill-opacity:0.15;stroke:#1f77b4;stroke-opacity:0.15;" x="184.5" xlink:href="#m716926f4b1" y="182.115255"/>
     <use style="fill:#1f77b4;fill-opacity:0.15;stroke:#1f77b4;stroke-opacity:0.15;" x="184.5" xlink:href="#m716926f4b1" y="244.772127"/>
     <use style="fill:#1f77b4;fill-opacity:0.15;stroke:#1f77b4;stroke-opacity:0.15;" x="184.5" xlink:href="#m716926f4b1" y="182.115255"/>
     <use style="fill:#1f77b4;fill-opacity:0.15;stroke:#1f77b4;stroke-opacity:0.15;" x="184.5" xlink:href="#m716926f4b1" y="182.115255"/>
     <use style="fill:#1f77b4;fill-opacity:0.15;stroke:#1f77b4;stroke-opacity:0.15;" x="184.5" xlink:href="#m716926f4b1" y="182.115255"/>
     <use style="fill:#1f77b4;fill-opacity:0.15;stroke:#1f77b4;stroke-opacity:0.15;" x="184.5" xlink:href="#m716926f4b1" y="182.115255"/>
     <use style="fill:#1f77b4;fill-opacity:0.15;stroke:#1f77b4;stroke-opacity:0.15;" x="184.5" xlink:href="#m716926f4b1" y="182.115255"/>
     <use style="fill:#1f77b4;fill-opacity:0.15;stroke:#1f77b4;stroke-opacity:0.15;" x="184.5" xlink:href="#m716926f4b1" y="182.115255"/>
     <use style="fill:#1f77b4;fill-opacity:0.15;stroke:#1f77b4;stroke-opacity:0.15;" x="184.5" xlink:href="#m716926f4b1" y="182.115255"/>
     <use style="fill:#1f77b4;fill-opacity:0.15;stroke:#1f77b4;stroke-opacity:0.15;" x="184.5" xlink:href="#m716926f4b1" y="182.115255"/>
     <use style="fill:#1f77b4;fill-opacity:0.15;stroke:#1f77b4;stroke-opacity:0.15;" x="254.25" xlink:href="#m716926f4b1" y="119.458383"/>
     <use style="fill:#1f77b4;fill-opacity:0.15;stroke:#1f77b4;stroke-opacity:0.15;" x="254.25" xlink:href="#m716926f4b1" y="119.458383"/>
     <use style="fill:#1f77b4;fill-opacity:0.15;stroke:#1f77b4;stroke-opacity:0.15;" x="254.25" xlink:href="#m716926f4b1" y="119.458383"/>
     <use style="fill:#1f77b4;fill-opacity:0.15;stroke:#1f77b4;stroke-opacity:0.15;" x="254.25" xlink:href="#m716926f4b1" y="119.458383"/>
     <use style="fill:#1f77b4;fill-opacity:0.15;stroke:#1f77b4;stroke-opacity:0.15;" x="254.25" xlink:href="#m716926f4b1" y="119.458383"/>
     <use style="fill:#1f77b4;fill-opacity:0.15;stroke:#1f77b4;stroke-opacity:0.15;" x="254.25" xlink:href="#m716926f4b1" y="119.458383"/>
     <use style="fill:#1f77b4;fill-opacity:0.15;stroke:#1f77b4;stroke-opacity:0.15;" x="254.25" xlink:href="#m716926f4b1" y="119.458383"/>
     <use style="fill:#1f77b4;fill-opacity:0.15;stroke:#1f77b4;stroke-opacity:0.15;" x="254.25" xlink:href="#m716926f4b1" y="119.458383"/>
     <use style="fill:#1f77b4;fill-opacity:0.15;stroke:#1f77b4;stroke-opacity:0.15;" x="254.25" xlink:href="#m716926f4b1" y="119.458383"/>
     <use style="fill:#1f77b4;fill-opacity:0.15;stroke:#1f77b4;stroke-opacity:0.15;" x="254.25" xlink:href="#m716926f4b1" y="119.458383"/>
     <use style="fill:#1f77b4;fill-opacity:0.15;stroke:#1f77b4;stroke-opacity:0.15;" x="254.25" xlink:href="#m716926f4b1" y="119.458383"/>
     <use style="fill:#1f77b4;fill-opacity:0.15;stroke:#1f77b4;stroke-opacity:0.15;" x="254.25" xlink:href="#m716926f4b1" y="119.458383"/>
     <use style="fill:#1f77b4;fill-opacity:0.15;stroke:#1f77b4;stroke-opacity:0.15;" x="254.25" xlink:href="#m716926f4b1" y="119.458383"/>
     <use style="fill:#1f77b4;fill-opacity:0.15;stroke:#1f77b4;stroke-opacity:0.15;" x="254.25" xlink:href="#m716926f4b1" y="119.458383"/>
     <use style="fill:#1f77b4;fill-opacity:0.15;stroke:#1f77b4;stroke-opacity:0.15;" x="254.25" xlink:href="#m716926f4b1" y="119.458383"/>
     <use style="fill:#1f77b4;fill-opacity:0.15;stroke:#1f77b4;stroke-opacity:0.15;" x="254.25" xlink:href="#m716926f4b1" y="119.458383"/>
     <use style="fill:#1f77b4;fill-opacity:0.15;stroke:#1f77b4;stroke-opacity:0.15;" x="324" xlink:href="#m716926f4b1" y="56.801511"/>
     <use style="fill:#1f77b4;fill-opacity:0.15;stroke:#1f77b4;stroke-opacity:0.15;" x="324" xlink:href="#m716926f4b1" y="56.801511"/>
     <use style="fill:#1f77b4;fill-opacity:0.15;stroke:#1f77b4;stroke-opacity:0.15;" x="324" xlink:href="#m716926f4b1" y="56.801511"/>
     <use style="fill:#1f77b4;fill-opacity:0.15;stroke:#1f77b4;stroke-opacity:0.15;" x="324" xlink:href="#m716926f4b1" y="56.801511"/>
     <use style="fill:#1f77b4;fill-opacity:0.15;stroke:#1f77b4;stroke-opacity:0.15;" x="324" xlink:href="#m716926f4b1" y="56.801511"/>
     <use style="fill:#1f77b4;fill-opacity:0.15;stroke:#1f77b4;stroke-opacity:0.15;" x="324" xlink:href="#m716926f4b1" y="56.801511"/>
     <use style="fill:#1f77b4;fill-opacity:0.15;stroke:#1f77b4;stroke-opacity:0.15;" x="324" xlink:href="#m716926f4b1" y="56.801511"/>
     <use style="fill:#1f77b4;fill-opacity:0.15;stroke:#1f77b4;stroke-opacity:0.15;" x="324" xlink:href="#m716926f4b1" y="56.801511"/>
     <use style="fill:#1f77b4;fill-opacity:0.15;stroke:#1f77b4;stroke-opacity:0.15;" x="324" xlink:href="#m716926f4b1" y="56.801511"/>
     <use style="fill:#1f77b4;fill-opacity:0.15;stroke:#1f77b4;stroke-opacity:0.15;" x="324" xlink:href="#m716926f4b1" y="56.801511"/>
     <use style="fill:#1f77b4;fill-opacity:0.15;stroke:#1f77b4;stroke-opacity:0.15;" x="324" xlink:href="#m716926f4b1" y="56.801511"/>
     <use style="fill:#1f77b4;fill-opacity:0.15;stroke:#1f77b4;stroke-opacity:0.15;" x="324" xlink:href="#m716926f4b1" y="56.801511"/>
     <use style="fill:#1f77b4;fill-opacity:0.15;stroke:#1f77b4;stroke-opacity:0.15;" x="324" xlink:href="#m716926f4b1" y="56.801511"/>
     <use style="fill:#1f77b4;fill-opacity:0.15;stroke:#1f77b4;stroke-opacity:0.15;" x="324" xlink:href="#m716926f4b1" y="56.801511"/>
     <use style="fill:#1f77b4;fill-opacity:0.15;stroke:#1f77b4;stroke-opacity:0.15;" x="324" xlink:href="#m716926f4b1" y="56.801511"/>
     <use style="fill:#1f77b4;fill-opacity:0.15;stroke:#1f77b4;stroke-opacity:0.15;" x="324" xlink:href="#m716926f4b1" y="56.801511"/>
     <use style="fill:#1f77b4;fill-opacity:0.15;stroke:#1f77b4;stroke-opacity:0.15;" x="324" xlink:href="#m716926f4b1" y="56.801511"/>
    </g>
   </g>
   <g id="PolyCollection_1">
    <path clip-path="url(#p837db5f929)" d="M 45 292.077761 
L 45 307.8 
L 47.818182 305.282977 
L 50.636364 302.765954 
L 53.454545 300.248931 
L 56.272727 297.731908 
L 59.090909 295.21476 
L 61.909091 292.697467 
L 64.727273 290.186281 
L 67.545455 287.678888 
L 70.363636 285.171495 
L 73.181818 282.664102 
L 76 280.156709 
L 78.818182 277.64674 
L 81.636364 275.127504 
L 84.454545 272.606639 
L 87.272727 270.07366 
L 90.090909 267.54068 
L 92.909091 265.0077 
L 95.727273 262.489635 
L 98.545455 259.971967 
L 101.363636 257.448757 
L 104.181818 254.917181 
L 107 252.409909 
L 109.818182 249.875093 
L 112.636364 247.340229 
L 115.454545 244.853554 
L 118.272727 242.351589 
L 121.090909 239.834295 
L 123.909091 237.334979 
L 126.727273 234.81603 
L 129.545455 232.296553 
L 132.363636 229.786623 
L 135.181818 227.284206 
L 138 224.766036 
L 140.818182 222.247428 
L 143.636364 219.751646 
L 146.454545 217.271285 
L 149.272727 214.8186 
L 152.090909 212.366968 
L 154.909091 209.914456 
L 157.727273 207.443274 
L 160.545455 204.943998 
L 163.363636 202.437127 
L 166.181818 199.930256 
L 169 197.448829 
L 171.818182 194.950377 
L 174.636364 192.452618 
L 177.454545 189.95413 
L 180.272727 187.455254 
L 183.090909 184.956377 
L 185.909091 182.4575 
L 188.727273 179.958814 
L 191.545455 177.444157 
L 194.363636 174.915592 
L 197.181818 172.3831 
L 200 169.879397 
L 202.818182 167.356994 
L 205.636364 164.839482 
L 208.454545 162.327251 
L 211.272727 159.821514 
L 214.090909 157.313094 
L 216.909091 154.804284 
L 219.727273 152.316319 
L 222.545455 149.845834 
L 225.363636 147.420612 
L 228.181818 144.968363 
L 231 142.507859 
L 233.818182 140.066991 
L 236.636364 137.625628 
L 239.454545 135.192781 
L 242.272727 132.742127 
L 245.090909 130.283101 
L 247.909091 127.803946 
L 250.727273 125.347442 
L 253.545455 122.889121 
L 256.363636 120.454953 
L 259.181818 117.954245 
L 262 115.506271 
L 264.818182 113.05306 
L 267.636364 110.643251 
L 270.454545 108.241649 
L 273.272727 105.814937 
L 276.090909 103.382296 
L 278.909091 100.978335 
L 281.727273 98.605217 
L 284.545455 96.218183 
L 287.363636 93.805334 
L 290.181818 91.377605 
L 293 88.948645 
L 295.818182 86.562611 
L 298.636364 84.172029 
L 301.454545 81.744282 
L 304.272727 79.424031 
L 307.090909 77.027411 
L 309.909091 74.627038 
L 312.727273 72.224914 
L 315.545455 69.823805 
L 318.363636 67.401774 
L 321.181818 64.979974 
L 324 62.608501 
L 324 55.8 
L 324 55.8 
L 321.181818 58.248979 
L 318.363636 60.721052 
L 315.545455 63.205661 
L 312.727273 65.674046 
L 309.909091 68.160732 
L 307.090909 70.638829 
L 304.272727 73.121553 
L 301.454545 75.583104 
L 298.636364 78.077623 
L 295.818182 80.511684 
L 293 82.965569 
L 290.181818 85.388638 
L 287.363636 87.816134 
L 284.545455 90.28331 
L 281.727273 92.74373 
L 278.909091 95.170477 
L 276.090909 97.563305 
L 273.272727 99.993936 
L 270.454545 102.445885 
L 267.636364 104.897305 
L 264.818182 107.328567 
L 262 109.752279 
L 259.181818 112.186233 
L 256.363636 114.610975 
L 253.545455 117.038653 
L 250.727273 119.499747 
L 247.909091 121.931574 
L 245.090909 124.363401 
L 242.272727 126.796549 
L 239.454545 129.203301 
L 236.636364 131.612475 
L 233.818182 134.046024 
L 231 136.438619 
L 228.181818 138.855614 
L 225.363636 141.233858 
L 222.545455 143.601486 
L 219.727273 145.956606 
L 216.909091 148.390512 
L 214.090909 150.822479 
L 211.272727 153.191329 
L 208.454545 155.558042 
L 205.636364 157.9475 
L 202.818182 160.341609 
L 200 162.735718 
L 197.181818 165.085449 
L 194.363636 167.434399 
L 191.545455 169.783386 
L 188.727273 172.157169 
L 185.909091 174.53239 
L 183.090909 176.930818 
L 180.272727 179.323528 
L 177.454545 181.684297 
L 174.636364 184.017612 
L 171.818182 186.351601 
L 169 188.679975 
L 166.181818 191.027116 
L 163.363636 193.395511 
L 160.545455 195.752882 
L 157.727273 198.11032 
L 154.909091 200.469963 
L 152.090909 202.827229 
L 149.272727 205.167105 
L 146.454545 207.491923 
L 143.636364 209.817534 
L 140.818182 212.17926 
L 138 214.556486 
L 135.181818 216.909853 
L 132.363636 219.244828 
L 129.545455 221.668586 
L 126.727273 224.031796 
L 123.909091 226.38001 
L 121.090909 228.752552 
L 118.272727 231.097931 
L 115.454545 233.443395 
L 112.636364 235.809763 
L 109.818182 238.148857 
L 107 240.47987 
L 104.181818 242.824821 
L 101.363636 245.176102 
L 98.545455 247.554327 
L 95.727273 249.928361 
L 92.909091 252.264981 
L 90.090909 254.627388 
L 87.272727 256.99996 
L 84.454545 259.372532 
L 81.636364 261.74256 
L 78.818182 264.076007 
L 76 266.409454 
L 73.181818 268.742901 
L 70.363636 271.076348 
L 67.545455 273.417809 
L 64.727273 275.749117 
L 61.909091 278.080425 
L 59.090909 280.411733 
L 56.272727 282.74304 
L 53.454545 285.074348 
L 50.636364 287.405656 
L 47.818182 289.738324 
L 45 292.077761 
z
" style="fill:#1f77b4;fill-opacity:0.15;"/>
   </g>
   <g id="matplotlib.axis_1">
    <g id="xtick_1">
     <g id="line2d_1">
      <defs>
       <path d="M 0 0 
L 0 3.5 
" id="m8fe7da35b5" style="stroke:#000000;stroke-width:0.8;"/>
      </defs>
      <g>
       <use style="stroke:#000000;stroke-width:0.8;" x="45" xlink:href="#m8fe7da35b5" y="320.4"/>
      </g>
     </g>
     <g id="text_1">
      <!-- 0.0 -->
      <defs>
       <path d="M 31.78125 66.40625 
Q 24.171875 66.40625 20.328125 58.90625 
Q 16.5 51.421875 16.5 36.375 
Q 16.5 21.390625 20.328125 13.890625 
Q 24.171875 6.390625 31.78125 6.390625 
Q 39.453125 6.390625 43.28125 13.890625 
Q 47.125 21.390625 47.125 36.375 
Q 47.125 51.421875 43.28125 58.90625 
Q 39.453125 66.40625 31.78125 66.40625 
z
M 31.78125 74.21875 
Q 44.046875 74.21875 50.515625 64.515625 
Q 56.984375 54.828125 56.984375 36.375 
Q 56.984375 17.96875 50.515625 8.265625 
Q 44.046875 -1.421875 31.78125 -1.421875 
Q 19.53125 -1.421875 13.0625 8.265625 
Q 6.59375 17.96875 6.59375 36.375 
Q 6.59375 54.828125 13.0625 64.515625 
Q 19.53125 74.21875 31.78125 74.21875 
z
" id="DejaVuSans-48"/>
       <path d="M 10.6875 12.40625 
L 21 12.40625 
L 21 0 
L 10.6875 0 
z
" id="DejaVuSans-46"/>
      </defs>
      <g transform="translate(37.048437 334.998438)scale(0.1 -0.1)">
       <use xlink:href="#DejaVuSans-48"/>
       <use x="63.623047" xlink:href="#DejaVuSans-46"/>
       <use x="95.410156" xlink:href="#DejaVuSans-48"/>
      </g>
     </g>
    </g>
    <g id="xtick_2">
     <g id="line2d_2">
      <g>
       <use style="stroke:#000000;stroke-width:0.8;" x="79.875" xlink:href="#m8fe7da35b5" y="320.4"/>
      </g>
     </g>
     <g id="text_2">
      <!-- 0.5 -->
      <defs>
       <path d="M 10.796875 72.90625 
L 49.515625 72.90625 
L 49.515625 64.59375 
L 19.828125 64.59375 
L 19.828125 46.734375 
Q 21.96875 47.46875 24.109375 47.828125 
Q 26.265625 48.1875 28.421875 48.1875 
Q 40.625 48.1875 47.75 41.5 
Q 54.890625 34.8125 54.890625 23.390625 
Q 54.890625 11.625 47.5625 5.09375 
Q 40.234375 -1.421875 26.90625 -1.421875 
Q 22.3125 -1.421875 17.546875 -0.640625 
Q 12.796875 0.140625 7.71875 1.703125 
L 7.71875 11.625 
Q 12.109375 9.234375 16.796875 8.0625 
Q 21.484375 6.890625 26.703125 6.890625 
Q 35.15625 6.890625 40.078125 11.328125 
Q 45.015625 15.765625 45.015625 23.390625 
Q 45.015625 31 40.078125 35.4375 
Q 35.15625 39.890625 26.703125 39.890625 
Q 22.75 39.890625 18.8125 39.015625 
Q 14.890625 38.140625 10.796875 36.28125 
z
" id="DejaVuSans-53"/>
      </defs>
      <g transform="translate(71.923438 334.998438)scale(0.1 -0.1)">
       <use xlink:href="#DejaVuSans-48"/>
       <use x="63.623047" xlink:href="#DejaVuSans-46"/>
       <use x="95.410156" xlink:href="#DejaVuSans-53"/>
      </g>
     </g>
    </g>
    <g id="xtick_3">
     <g id="line2d_3">
      <g>
       <use style="stroke:#000000;stroke-width:0.8;" x="114.75" xlink:href="#m8fe7da35b5" y="320.4"/>
      </g>
     </g>
     <g id="text_3">
      <!-- 1.0 -->
      <defs>
       <path d="M 12.40625 8.296875 
L 28.515625 8.296875 
L 28.515625 63.921875 
L 10.984375 60.40625 
L 10.984375 69.390625 
L 28.421875 72.90625 
L 38.28125 72.90625 
L 38.28125 8.296875 
L 54.390625 8.296875 
L 54.390625 0 
L 12.40625 0 
z
" id="DejaVuSans-49"/>
      </defs>
      <g transform="translate(106.798438 334.998438)scale(0.1 -0.1)">
       <use xlink:href="#DejaVuSans-49"/>
       <use x="63.623047" xlink:href="#DejaVuSans-46"/>
       <use x="95.410156" xlink:href="#DejaVuSans-48"/>
      </g>
     </g>
    </g>
    <g id="xtick_4">
     <g id="line2d_4">
      <g>
       <use style="stroke:#000000;stroke-width:0.8;" x="149.625" xlink:href="#m8fe7da35b5" y="320.4"/>
      </g>
     </g>
     <g id="text_4">
      <!-- 1.5 -->
      <g transform="translate(141.673438 334.998438)scale(0.1 -0.1)">
       <use xlink:href="#DejaVuSans-49"/>
       <use x="63.623047" xlink:href="#DejaVuSans-46"/>
       <use x="95.410156" xlink:href="#DejaVuSans-53"/>
      </g>
     </g>
    </g>
    <g id="xtick_5">
     <g id="line2d_5">
      <g>
       <use style="stroke:#000000;stroke-width:0.8;" x="184.5" xlink:href="#m8fe7da35b5" y="320.4"/>
      </g>
     </g>
     <g id="text_5">
      <!-- 2.0 -->
      <defs>
       <path d="M 19.1875 8.296875 
L 53.609375 8.296875 
L 53.609375 0 
L 7.328125 0 
L 7.328125 8.296875 
Q 12.9375 14.109375 22.625 23.890625 
Q 32.328125 33.6875 34.8125 36.53125 
Q 39.546875 41.84375 41.421875 45.53125 
Q 43.3125 49.21875 43.3125 52.78125 
Q 43.3125 58.59375 39.234375 62.25 
Q 35.15625 65.921875 28.609375 65.921875 
Q 23.96875 65.921875 18.8125 64.3125 
Q 13.671875 62.703125 7.8125 59.421875 
L 7.8125 69.390625 
Q 13.765625 71.78125 18.9375 73 
Q 24.125 74.21875 28.421875 74.21875 
Q 39.75 74.21875 46.484375 68.546875 
Q 53.21875 62.890625 53.21875 53.421875 
Q 53.21875 48.921875 51.53125 44.890625 
Q 49.859375 40.875 45.40625 35.40625 
Q 44.1875 33.984375 37.640625 27.21875 
Q 31.109375 20.453125 19.1875 8.296875 
z
" id="DejaVuSans-50"/>
      </defs>
      <g transform="translate(176.548438 334.998438)scale(0.1 -0.1)">
       <use xlink:href="#DejaVuSans-50"/>
       <use x="63.623047" xlink:href="#DejaVuSans-46"/>
       <use x="95.410156" xlink:href="#DejaVuSans-48"/>
      </g>
     </g>
    </g>
    <g id="xtick_6">
     <g id="line2d_6">
      <g>
       <use style="stroke:#000000;stroke-width:0.8;" x="219.375" xlink:href="#m8fe7da35b5" y="320.4"/>
      </g>
     </g>
     <g id="text_6">
      <!-- 2.5 -->
      <g transform="translate(211.423438 334.998438)scale(0.1 -0.1)">
       <use xlink:href="#DejaVuSans-50"/>
       <use x="63.623047" xlink:href="#DejaVuSans-46"/>
       <use x="95.410156" xlink:href="#DejaVuSans-53"/>
      </g>
     </g>
    </g>
    <g id="xtick_7">
     <g id="line2d_7">
      <g>
       <use style="stroke:#000000;stroke-width:0.8;" x="254.25" xlink:href="#m8fe7da35b5" y="320.4"/>
      </g>
     </g>
     <g id="text_7">
      <!-- 3.0 -->
      <defs>
       <path d="M 40.578125 39.3125 
Q 47.65625 37.796875 51.625 33 
Q 55.609375 28.21875 55.609375 21.1875 
Q 55.609375 10.40625 48.1875 4.484375 
Q 40.765625 -1.421875 27.09375 -1.421875 
Q 22.515625 -1.421875 17.65625 -0.515625 
Q 12.796875 0.390625 7.625 2.203125 
L 7.625 11.71875 
Q 11.71875 9.328125 16.59375 8.109375 
Q 21.484375 6.890625 26.8125 6.890625 
Q 36.078125 6.890625 40.9375 10.546875 
Q 45.796875 14.203125 45.796875 21.1875 
Q 45.796875 27.640625 41.28125 31.265625 
Q 36.765625 34.90625 28.71875 34.90625 
L 20.21875 34.90625 
L 20.21875 43.015625 
L 29.109375 43.015625 
Q 36.375 43.015625 40.234375 45.921875 
Q 44.09375 48.828125 44.09375 54.296875 
Q 44.09375 59.90625 40.109375 62.90625 
Q 36.140625 65.921875 28.71875 65.921875 
Q 24.65625 65.921875 20.015625 65.03125 
Q 15.375 64.15625 9.8125 62.3125 
L 9.8125 71.09375 
Q 15.4375 72.65625 20.34375 73.4375 
Q 25.25 74.21875 29.59375 74.21875 
Q 40.828125 74.21875 47.359375 69.109375 
Q 53.90625 64.015625 53.90625 55.328125 
Q 53.90625 49.265625 50.4375 45.09375 
Q 46.96875 40.921875 40.578125 39.3125 
z
" id="DejaVuSans-51"/>
      </defs>
      <g transform="translate(246.298438 334.998438)scale(0.1 -0.1)">
       <use xlink:href="#DejaVuSans-51"/>
       <use x="63.623047" xlink:href="#DejaVuSans-46"/>
       <use x="95.410156" xlink:href="#DejaVuSans-48"/>
      </g>
     </g>
    </g>
    <g id="xtick_8">
     <g id="line2d_8">
      <g>
       <use style="stroke:#000000;stroke-width:0.8;" x="289.125" xlink:href="#m8fe7da35b5" y="320.4"/>
      </g>
     </g>
     <g id="text_8">
      <!-- 3.5 -->
      <g transform="translate(281.173437 334.998438)scale(0.1 -0.1)">
       <use xlink:href="#DejaVuSans-51"/>
       <use x="63.623047" xlink:href="#DejaVuSans-46"/>
       <use x="95.410156" xlink:href="#DejaVuSans-53"/>
      </g>
     </g>
    </g>
    <g id="xtick_9">
     <g id="line2d_9">
      <g>
       <use style="stroke:#000000;stroke-width:0.8;" x="324" xlink:href="#m8fe7da35b5" y="320.4"/>
      </g>
     </g>
     <g id="text_9">
      <!-- 4.0 -->
      <defs>
       <path d="M 37.796875 64.3125 
L 12.890625 25.390625 
L 37.796875 25.390625 
z
M 35.203125 72.90625 
L 47.609375 72.90625 
L 47.609375 25.390625 
L 58.015625 25.390625 
L 58.015625 17.1875 
L 47.609375 17.1875 
L 47.609375 0 
L 37.796875 0 
L 37.796875 17.1875 
L 4.890625 17.1875 
L 4.890625 26.703125 
z
" id="DejaVuSans-52"/>
      </defs>
      <g transform="translate(316.048437 334.998438)scale(0.1 -0.1)">
       <use xlink:href="#DejaVuSans-52"/>
       <use x="63.623047" xlink:href="#DejaVuSans-46"/>
       <use x="95.410156" xlink:href="#DejaVuSans-48"/>
      </g>
     </g>
    </g>
   </g>
   <g id="matplotlib.axis_2">
    <g id="ytick_1">
     <g id="line2d_10">
      <defs>
       <path d="M 0 0 
L -3.5 0 
" id="m7198450917" style="stroke:#000000;stroke-width:0.8;"/>
      </defs>
      <g>
       <use style="stroke:#000000;stroke-width:0.8;" x="45" xlink:href="#m7198450917" y="307.428999"/>
      </g>
     </g>
     <g id="text_10">
      <!-- 0.0 -->
      <g transform="translate(22.096875 311.228218)scale(0.1 -0.1)">
       <use xlink:href="#DejaVuSans-48"/>
       <use x="63.623047" xlink:href="#DejaVuSans-46"/>
       <use x="95.410156" xlink:href="#DejaVuSans-48"/>
      </g>
     </g>
    </g>
    <g id="ytick_2">
     <g id="line2d_11">
      <g>
       <use style="stroke:#000000;stroke-width:0.8;" x="45" xlink:href="#m7198450917" y="276.100563"/>
      </g>
     </g>
     <g id="text_11">
      <!-- 0.5 -->
      <g transform="translate(22.096875 279.899782)scale(0.1 -0.1)">
       <use xlink:href="#DejaVuSans-48"/>
       <use x="63.623047" xlink:href="#DejaVuSans-46"/>
       <use x="95.410156" xlink:href="#DejaVuSans-53"/>
      </g>
     </g>
    </g>
    <g id="ytick_3">
     <g id="line2d_12">
      <g>
       <use style="stroke:#000000;stroke-width:0.8;" x="45" xlink:href="#m7198450917" y="244.772127"/>
      </g>
     </g>
     <g id="text_12">
      <!-- 1.0 -->
      <g transform="translate(22.096875 248.571346)scale(0.1 -0.1)">
       <use xlink:href="#DejaVuSans-49"/>
       <use x="63.623047" xlink:href="#DejaVuSans-46"/>
       <use x="95.410156" xlink:href="#DejaVuSans-48"/>
      </g>
     </g>
    </g>
    <g id="ytick_4">
     <g id="line2d_13">
      <g>
       <use style="stroke:#000000;stroke-width:0.8;" x="45" xlink:href="#m7198450917" y="213.443691"/>
      </g>
     </g>
     <g id="text_13">
      <!-- 1.5 -->
      <g transform="translate(22.096875 217.24291)scale(0.1 -0.1)">
       <use xlink:href="#DejaVuSans-49"/>
       <use x="63.623047" xlink:href="#DejaVuSans-46"/>
       <use x="95.410156" xlink:href="#DejaVuSans-53"/>
      </g>
     </g>
    </g>
    <g id="ytick_5">
     <g id="line2d_14">
      <g>
       <use style="stroke:#000000;stroke-width:0.8;" x="45" xlink:href="#m7198450917" y="182.115255"/>
      </g>
     </g>
     <g id="text_14">
      <!-- 2.0 -->
      <g transform="translate(22.096875 185.914474)scale(0.1 -0.1)">
       <use xlink:href="#DejaVuSans-50"/>
       <use x="63.623047" xlink:href="#DejaVuSans-46"/>
       <use x="95.410156" xlink:href="#DejaVuSans-48"/>
      </g>
     </g>
    </g>
    <g id="ytick_6">
     <g id="line2d_15">
      <g>
       <use style="stroke:#000000;stroke-width:0.8;" x="45" xlink:href="#m7198450917" y="150.786819"/>
      </g>
     </g>
     <g id="text_15">
      <!-- 2.5 -->
      <g transform="translate(22.096875 154.586038)scale(0.1 -0.1)">
       <use xlink:href="#DejaVuSans-50"/>
       <use x="63.623047" xlink:href="#DejaVuSans-46"/>
       <use x="95.410156" xlink:href="#DejaVuSans-53"/>
      </g>
     </g>
    </g>
    <g id="ytick_7">
     <g id="line2d_16">
      <g>
       <use style="stroke:#000000;stroke-width:0.8;" x="45" xlink:href="#m7198450917" y="119.458383"/>
      </g>
     </g>
     <g id="text_16">
      <!-- 3.0 -->
      <g transform="translate(22.096875 123.257602)scale(0.1 -0.1)">
       <use xlink:href="#DejaVuSans-51"/>
       <use x="63.623047" xlink:href="#DejaVuSans-46"/>
       <use x="95.410156" xlink:href="#DejaVuSans-48"/>
      </g>
     </g>
    </g>
    <g id="ytick_8">
     <g id="line2d_17">
      <g>
       <use style="stroke:#000000;stroke-width:0.8;" x="45" xlink:href="#m7198450917" y="88.129947"/>
      </g>
     </g>
     <g id="text_17">
      <!-- 3.5 -->
      <g transform="translate(22.096875 91.929166)scale(0.1 -0.1)">
       <use xlink:href="#DejaVuSans-51"/>
       <use x="63.623047" xlink:href="#DejaVuSans-46"/>
       <use x="95.410156" xlink:href="#DejaVuSans-53"/>
      </g>
     </g>
    </g>
    <g id="ytick_9">
     <g id="line2d_18">
      <g>
       <use style="stroke:#000000;stroke-width:0.8;" x="45" xlink:href="#m7198450917" y="56.801511"/>
      </g>
     </g>
     <g id="text_18">
      <!-- 4.0 -->
      <g transform="translate(22.096875 60.60073)scale(0.1 -0.1)">
       <use xlink:href="#DejaVuSans-52"/>
       <use x="63.623047" xlink:href="#DejaVuSans-46"/>
       <use x="95.410156" xlink:href="#DejaVuSans-48"/>
      </g>
     </g>
    </g>
   </g>
   <g id="line2d_19">
    <path clip-path="url(#p837db5f929)" d="M 45 300.270811 
L 47.818182 297.835201 
L 50.636364 295.399591 
L 53.454545 292.963981 
L 56.272727 290.528371 
L 59.090909 288.092761 
L 61.909091 285.657151 
L 64.727273 283.221541 
L 67.545455 280.785931 
L 70.363636 278.350321 
L 73.181818 275.914711 
L 76 273.4791 
L 78.818182 271.04349 
L 81.636364 268.60788 
L 84.454545 266.17227 
L 87.272727 263.73666 
L 90.090909 261.30105 
L 92.909091 258.86544 
L 95.727273 256.42983 
L 98.545455 253.99422 
L 101.363636 251.55861 
L 104.181818 249.123 
L 107 246.687389 
L 109.818182 244.251779 
L 112.636364 241.816169 
L 115.454545 239.380559 
L 118.272727 236.944949 
L 121.090909 234.509339 
L 123.909091 232.073729 
L 126.727273 229.638119 
L 129.545455 227.202509 
L 132.363636 224.766899 
L 135.181818 222.331289 
L 138 219.895679 
L 140.818182 217.460068 
L 143.636364 215.024458 
L 146.454545 212.588848 
L 149.272727 210.153238 
L 152.090909 207.717628 
L 154.909091 205.282018 
L 157.727273 202.846408 
L 160.545455 200.410798 
L 163.363636 197.975188 
L 166.181818 195.539578 
L 169 193.103968 
L 171.818182 190.668357 
L 174.636364 188.232747 
L 177.454545 185.797137 
L 180.272727 183.361527 
L 183.090909 180.925917 
L 185.909091 178.490307 
L 188.727273 176.054697 
L 191.545455 173.619087 
L 194.363636 171.183477 
L 197.181818 168.747867 
L 200 166.312257 
L 202.818182 163.876647 
L 205.636364 161.441036 
L 208.454545 159.005426 
L 211.272727 156.569816 
L 214.090909 154.134206 
L 216.909091 151.698596 
L 219.727273 149.262986 
L 222.545455 146.827376 
L 225.363636 144.391766 
L 228.181818 141.956156 
L 231 139.520546 
L 233.818182 137.084936 
L 236.636364 134.649325 
L 239.454545 132.213715 
L 242.272727 129.778105 
L 245.090909 127.342495 
L 247.909091 124.906885 
L 250.727273 122.471275 
L 253.545455 120.035665 
L 256.363636 117.600055 
L 259.181818 115.164445 
L 262 112.728835 
L 264.818182 110.293225 
L 267.636364 107.857614 
L 270.454545 105.422004 
L 273.272727 102.986394 
L 276.090909 100.550784 
L 278.909091 98.115174 
L 281.727273 95.679564 
L 284.545455 93.243954 
L 287.363636 90.808344 
L 290.181818 88.372734 
L 293 85.937124 
L 295.818182 83.501514 
L 298.636364 81.065904 
L 301.454545 78.630293 
L 304.272727 76.194683 
L 307.090909 73.759073 
L 309.909091 71.323463 
L 312.727273 68.887853 
L 315.545455 66.452243 
L 318.363636 64.016633 
L 321.181818 61.581023 
L 324 59.145413 
" style="fill:none;stroke:#1f77b4;stroke-linecap:square;stroke-width:2.25;"/>
   </g>
   <g id="patch_3">
    <path d="M 45 320.4 
L 45 43.2 
" style="fill:none;stroke:#000000;stroke-linecap:square;stroke-linejoin:miter;stroke-width:0.8;"/>
   </g>
   <g id="patch_4">
    <path d="M 324 320.4 
L 324 43.2 
" style="fill:none;stroke:#000000;stroke-linecap:square;stroke-linejoin:miter;stroke-width:0.8;"/>
   </g>
   <g id="patch_5">
    <path d="M 45 320.4 
L 324 320.4 
" style="fill:none;stroke:#000000;stroke-linecap:square;stroke-linejoin:miter;stroke-width:0.8;"/>
   </g>
   <g id="patch_6">
    <path d="M 45 43.2 
L 324 43.2 
" style="fill:none;stroke:#000000;stroke-linecap:square;stroke-linejoin:miter;stroke-width:0.8;"/>
   </g>
  </g>
 </g>
 <defs>
  <clipPath id="p837db5f929">
   <rect height="277.2" width="279" x="45" y="43.2"/>
  </clipPath>
 </defs>
</svg>
