<?xml version="1.0" encoding="utf-8" standalone="no"?>
<!DOCTYPE svg PUBLIC "-//W3C//DTD SVG 1.1//EN"
  "http://www.w3.org/Graphics/SVG/1.1/DTD/svg11.dtd">
<!-- Created with matplotlib (https://matplotlib.org/) -->
<svg height="360pt" version="1.1" viewBox="0 0 360 360" width="360pt" xmlns="http://www.w3.org/2000/svg" xmlns:xlink="http://www.w3.org/1999/xlink">
 <defs>
  <style type="text/css">
*{stroke-linecap:butt;stroke-linejoin:round;}
  </style>
 </defs>
 <g id="figure_1">
  <g id="patch_1">
   <path d="M 0 360 
L 360 360 
L 360 0 
L 0 0 
z
" style="fill:#ffffff;"/>
  </g>
  <g id="axes_1">
   <g id="patch_2">
    <path d="M 45 320.4 
L 324 320.4 
L 324 43.2 
L 45 43.2 
z
" style="fill:#ffffff;"/>
   </g>
   <g id="PathCollection_1">
    <defs>
     <path d="M 0 3 
C 0.795609 3 1.55874 2.683901 2.12132 2.12132 
C 2.683901 1.55874 3 0.795609 3 0 
C 3 -0.795609 2.683901 -1.55874 2.12132 -2.12132 
C 1.55874 -2.683901 0.795609 -3 0 -3 
C -0.795609 -3 -1.55874 -2.683901 -2.12132 -2.12132 
C -2.683901 -1.55874 -3 -0.795609 -3 0 
C -3 0.795609 -2.683901 1.55874 -2.12132 2.12132 
C -1.55874 2.683901 -0.795609 3 0 3 
z
" id="m73d48dc047" style="stroke:#1f77b4;stroke-opacity:0.15;"/>
    </defs>
    <g clip-path="url(#pb040ca9e00)">
     <use style="fill:#1f77b4;fill-opacity:0.15;stroke:#1f77b4;stroke-opacity:0.15;" x="45" xlink:href="#m73d48dc047" y="307.8"/>
     <use style="fill:#1f77b4;fill-opacity:0.15;stroke:#1f77b4;stroke-opacity:0.15;" x="45" xlink:href="#m73d48dc047" y="307.8"/>
     <use style="fill:#1f77b4;fill-opacity:0.15;stroke:#1f77b4;stroke-opacity:0.15;" x="45" xlink:href="#m73d48dc047" y="307.8"/>
     <use style="fill:#1f77b4;fill-opacity:0.15;stroke:#1f77b4;stroke-opacity:0.15;" x="45" xlink:href="#m73d48dc047" y="307.8"/>
     <use style="fill:#1f77b4;fill-opacity:0.15;stroke:#1f77b4;stroke-opacity:0.15;" x="45" xlink:href="#m73d48dc047" y="307.8"/>
     <use style="fill:#1f77b4;fill-opacity:0.15;stroke:#1f77b4;stroke-opacity:0.15;" x="45" xlink:href="#m73d48dc047" y="307.8"/>
     <use style="fill:#1f77b4;fill-opacity:0.15;stroke:#1f77b4;stroke-opacity:0.15;" x="45" xlink:href="#m73d48dc047" y="307.8"/>
     <use style="fill:#1f77b4;fill-opacity:0.15;stroke:#1f77b4;stroke-opacity:0.15;" x="45" xlink:href="#m73d48dc047" y="307.8"/>
     <use style="fill:#1f77b4;fill-opacity:0.15;stroke:#1f77b4;stroke-opacity:0.15;" x="114.75" xlink:href="#m73d48dc047" y="245.008441"/>
     <use style="fill:#1f77b4;fill-opacity:0.15;stroke:#1f77b4;stroke-opacity:0.15;" x="114.75" xlink:href="#m73d48dc047" y="245.008441"/>
     <use style="fill:#1f77b4;fill-opacity:0.15;stroke:#1f77b4;stroke-opacity:0.15;" x="114.75" xlink:href="#m73d48dc047" y="245.008441"/>
     <use style="fill:#1f77b4;fill-opacity:0.15;stroke:#1f77b4;stroke-opacity:0.15;" x="114.75" xlink:href="#m73d48dc047" y="245.008441"/>
     <use style="fill:#1f77b4;fill-opacity:0.15;stroke:#1f77b4;stroke-opacity:0.15;" x="114.75" xlink:href="#m73d48dc047" y="182.216882"/>
     <use style="fill:#1f77b4;fill-opacity:0.15;stroke:#1f77b4;stroke-opacity:0.15;" x="114.75" xlink:href="#m73d48dc047" y="182.216882"/>
     <use style="fill:#1f77b4;fill-opacity:0.15;stroke:#1f77b4;stroke-opacity:0.15;" x="114.75" xlink:href="#m73d48dc047" y="182.216882"/>
     <use style="fill:#1f77b4;fill-opacity:0.15;stroke:#1f77b4;stroke-opacity:0.15;" x="114.75" xlink:href="#m73d48dc047" y="182.216882"/>
     <use style="fill:#1f77b4;fill-opacity:0.15;stroke:#1f77b4;stroke-opacity:0.15;" x="114.75" xlink:href="#m73d48dc047" y="245.008441"/>
     <use style="fill:#1f77b4;fill-opacity:0.15;stroke:#1f77b4;stroke-opacity:0.15;" x="114.75" xlink:href="#m73d48dc047" y="245.008441"/>
     <use style="fill:#1f77b4;fill-opacity:0.15;stroke:#1f77b4;stroke-opacity:0.15;" x="114.75" xlink:href="#m73d48dc047" y="245.008441"/>
     <use style="fill:#1f77b4;fill-opacity:0.15;stroke:#1f77b4;stroke-opacity:0.15;" x="114.75" xlink:href="#m73d48dc047" y="245.008441"/>
     <use style="fill:#1f77b4;fill-opacity:0.15;stroke:#1f77b4;stroke-opacity:0.15;" x="114.75" xlink:href="#m73d48dc047" y="245.008441"/>
     <use style="fill:#1f77b4;fill-opacity:0.15;stroke:#1f77b4;stroke-opacity:0.15;" x="114.75" xlink:href="#m73d48dc047" y="245.008441"/>
     <use style="fill:#1f77b4;fill-opacity:0.15;stroke:#1f77b4;stroke-opacity:0.15;" x="114.75" xlink:href="#m73d48dc047" y="245.008441"/>
     <use style="fill:#1f77b4;fill-opacity:0.15;stroke:#1f77b4;stroke-opacity:0.15;" x="114.75" xlink:href="#m73d48dc047" y="245.008441"/>
     <use style="fill:#1f77b4;fill-opacity:0.15;stroke:#1f77b4;stroke-opacity:0.15;" x="114.75" xlink:href="#m73d48dc047" y="245.008441"/>
     <use style="fill:#1f77b4;fill-opacity:0.15;stroke:#1f77b4;stroke-opacity:0.15;" x="114.75" xlink:href="#m73d48dc047" y="245.008441"/>
     <use style="fill:#1f77b4;fill-opacity:0.15;stroke:#1f77b4;stroke-opacity:0.15;" x="114.75" xlink:href="#m73d48dc047" y="245.008441"/>
     <use style="fill:#1f77b4;fill-opacity:0.15;stroke:#1f77b4;stroke-opacity:0.15;" x="114.75" xlink:href="#m73d48dc047" y="245.008441"/>
     <use style="fill:#1f77b4;fill-opacity:0.15;stroke:#1f77b4;stroke-opacity:0.15;" x="114.75" xlink:href="#m73d48dc047" y="245.008441"/>
     <use style="fill:#1f77b4;fill-opacity:0.15;stroke:#1f77b4;stroke-opacity:0.15;" x="114.75" xlink:href="#m73d48dc047" y="245.008441"/>
     <use style="fill:#1f77b4;fill-opacity:0.15;stroke:#1f77b4;stroke-opacity:0.15;" x="114.75" xlink:href="#m73d48dc047" y="182.216882"/>
     <use style="fill:#1f77b4;fill-opacity:0.15;stroke:#1f77b4;stroke-opacity:0.15;" x="114.75" xlink:href="#m73d48dc047" y="245.008441"/>
     <use style="fill:#1f77b4;fill-opacity:0.15;stroke:#1f77b4;stroke-opacity:0.15;" x="114.75" xlink:href="#m73d48dc047" y="245.008441"/>
     <use style="fill:#1f77b4;fill-opacity:0.15;stroke:#1f77b4;stroke-opacity:0.15;" x="184.5" xlink:href="#m73d48dc047" y="182.216882"/>
     <use style="fill:#1f77b4;fill-opacity:0.15;stroke:#1f77b4;stroke-opacity:0.15;" x="184.5" xlink:href="#m73d48dc047" y="182.216882"/>
     <use style="fill:#1f77b4;fill-opacity:0.15;stroke:#1f77b4;stroke-opacity:0.15;" x="184.5" xlink:href="#m73d48dc047" y="182.216882"/>
     <use style="fill:#1f77b4;fill-opacity:0.15;stroke:#1f77b4;stroke-opacity:0.15;" x="184.5" xlink:href="#m73d48dc047" y="182.216882"/>
     <use style="fill:#1f77b4;fill-opacity:0.15;stroke:#1f77b4;stroke-opacity:0.15;" x="184.5" xlink:href="#m73d48dc047" y="182.216882"/>
     <use style="fill:#1f77b4;fill-opacity:0.15;stroke:#1f77b4;stroke-opacity:0.15;" x="184.5" xlink:href="#m73d48dc047" y="182.216882"/>
     <use style="fill:#1f77b4;fill-opacity:0.15;stroke:#1f77b4;stroke-opacity:0.15;" x="184.5" xlink:href="#m73d48dc047" y="182.216882"/>
     <use style="fill:#1f77b4;fill-opacity:0.15;stroke:#1f77b4;stroke-opacity:0.15;" x="184.5" xlink:href="#m73d48dc047" y="182.216882"/>
     <use style="fill:#1f77b4;fill-opacity:0.15;stroke:#1f77b4;stroke-opacity:0.15;" x="184.5" xlink:href="#m73d48dc047" y="182.216882"/>
     <use style="fill:#1f77b4;fill-opacity:0.15;stroke:#1f77b4;stroke-opacity:0.15;" x="184.5" xlink:href="#m73d48dc047" y="182.216882"/>
     <use style="fill:#1f77b4;fill-opacity:0.15;stroke:#1f77b4;stroke-opacity:0.15;" x="184.5" xlink:href="#m73d48dc047" y="182.216882"/>
     <use style="fill:#1f77b4;fill-opacity:0.15;stroke:#1f77b4;stroke-opacity:0.15;" x="184.5" xlink:href="#m73d48dc047" y="182.216882"/>
     <use style="fill:#1f77b4;fill-opacity:0.15;stroke:#1f77b4;stroke-opacity:0.15;" x="184.5" xlink:href="#m73d48dc047" y="182.216882"/>
     <use style="fill:#1f77b4;fill-opacity:0.15;stroke:#1f77b4;stroke-opacity:0.15;" x="184.5" xlink:href="#m73d48dc047" y="182.216882"/>
     <use style="fill:#1f77b4;fill-opacity:0.15;stroke:#1f77b4;stroke-opacity:0.15;" x="184.5" xlink:href="#m73d48dc047" y="182.216882"/>
     <use style="fill:#1f77b4;fill-opacity:0.15;stroke:#1f77b4;stroke-opacity:0.15;" x="184.5" xlink:href="#m73d48dc047" y="56.633764"/>
     <use style="fill:#1f77b4;fill-opacity:0.15;stroke:#1f77b4;stroke-opacity:0.15;" x="184.5" xlink:href="#m73d48dc047" y="182.216882"/>
     <use style="fill:#1f77b4;fill-opacity:0.15;stroke:#1f77b4;stroke-opacity:0.15;" x="184.5" xlink:href="#m73d48dc047" y="245.008441"/>
     <use style="fill:#1f77b4;fill-opacity:0.15;stroke:#1f77b4;stroke-opacity:0.15;" x="184.5" xlink:href="#m73d48dc047" y="182.216882"/>
     <use style="fill:#1f77b4;fill-opacity:0.15;stroke:#1f77b4;stroke-opacity:0.15;" x="184.5" xlink:href="#m73d48dc047" y="182.216882"/>
     <use style="fill:#1f77b4;fill-opacity:0.15;stroke:#1f77b4;stroke-opacity:0.15;" x="184.5" xlink:href="#m73d48dc047" y="182.216882"/>
     <use style="fill:#1f77b4;fill-opacity:0.15;stroke:#1f77b4;stroke-opacity:0.15;" x="184.5" xlink:href="#m73d48dc047" y="182.216882"/>
     <use style="fill:#1f77b4;fill-opacity:0.15;stroke:#1f77b4;stroke-opacity:0.15;" x="184.5" xlink:href="#m73d48dc047" y="182.216882"/>
     <use style="fill:#1f77b4;fill-opacity:0.15;stroke:#1f77b4;stroke-opacity:0.15;" x="184.5" xlink:href="#m73d48dc047" y="182.216882"/>
     <use style="fill:#1f77b4;fill-opacity:0.15;stroke:#1f77b4;stroke-opacity:0.15;" x="184.5" xlink:href="#m73d48dc047" y="182.216882"/>
     <use style="fill:#1f77b4;fill-opacity:0.15;stroke:#1f77b4;stroke-opacity:0.15;" x="184.5" xlink:href="#m73d48dc047" y="245.008441"/>
     <use style="fill:#1f77b4;fill-opacity:0.15;stroke:#1f77b4;stroke-opacity:0.15;" x="184.5" xlink:href="#m73d48dc047" y="182.216882"/>
     <use style="fill:#1f77b4;fill-opacity:0.15;stroke:#1f77b4;stroke-opacity:0.15;" x="184.5" xlink:href="#m73d48dc047" y="182.216882"/>
     <use style="fill:#1f77b4;fill-opacity:0.15;stroke:#1f77b4;stroke-opacity:0.15;" x="184.5" xlink:href="#m73d48dc047" y="182.216882"/>
     <use style="fill:#1f77b4;fill-opacity:0.15;stroke:#1f77b4;stroke-opacity:0.15;" x="184.5" xlink:href="#m73d48dc047" y="182.216882"/>
     <use style="fill:#1f77b4;fill-opacity:0.15;stroke:#1f77b4;stroke-opacity:0.15;" x="184.5" xlink:href="#m73d48dc047" y="182.216882"/>
     <use style="fill:#1f77b4;fill-opacity:0.15;stroke:#1f77b4;stroke-opacity:0.15;" x="184.5" xlink:href="#m73d48dc047" y="182.216882"/>
     <use style="fill:#1f77b4;fill-opacity:0.15;stroke:#1f77b4;stroke-opacity:0.15;" x="184.5" xlink:href="#m73d48dc047" y="182.216882"/>
     <use style="fill:#1f77b4;fill-opacity:0.15;stroke:#1f77b4;stroke-opacity:0.15;" x="184.5" xlink:href="#m73d48dc047" y="182.216882"/>
     <use style="fill:#1f77b4;fill-opacity:0.15;stroke:#1f77b4;stroke-opacity:0.15;" x="184.5" xlink:href="#m73d48dc047" y="182.216882"/>
     <use style="fill:#1f77b4;fill-opacity:0.15;stroke:#1f77b4;stroke-opacity:0.15;" x="184.5" xlink:href="#m73d48dc047" y="182.216882"/>
     <use style="fill:#1f77b4;fill-opacity:0.15;stroke:#1f77b4;stroke-opacity:0.15;" x="184.5" xlink:href="#m73d48dc047" y="182.216882"/>
     <use style="fill:#1f77b4;fill-opacity:0.15;stroke:#1f77b4;stroke-opacity:0.15;" x="184.5" xlink:href="#m73d48dc047" y="182.216882"/>
     <use style="fill:#1f77b4;fill-opacity:0.15;stroke:#1f77b4;stroke-opacity:0.15;" x="184.5" xlink:href="#m73d48dc047" y="245.008441"/>
     <use style="fill:#1f77b4;fill-opacity:0.15;stroke:#1f77b4;stroke-opacity:0.15;" x="184.5" xlink:href="#m73d48dc047" y="182.216882"/>
     <use style="fill:#1f77b4;fill-opacity:0.15;stroke:#1f77b4;stroke-opacity:0.15;" x="184.5" xlink:href="#m73d48dc047" y="182.216882"/>
     <use style="fill:#1f77b4;fill-opacity:0.15;stroke:#1f77b4;stroke-opacity:0.15;" x="184.5" xlink:href="#m73d48dc047" y="182.216882"/>
     <use style="fill:#1f77b4;fill-opacity:0.15;stroke:#1f77b4;stroke-opacity:0.15;" x="184.5" xlink:href="#m73d48dc047" y="182.216882"/>
     <use style="fill:#1f77b4;fill-opacity:0.15;stroke:#1f77b4;stroke-opacity:0.15;" x="184.5" xlink:href="#m73d48dc047" y="182.216882"/>
     <use style="fill:#1f77b4;fill-opacity:0.15;stroke:#1f77b4;stroke-opacity:0.15;" x="184.5" xlink:href="#m73d48dc047" y="182.216882"/>
     <use style="fill:#1f77b4;fill-opacity:0.15;stroke:#1f77b4;stroke-opacity:0.15;" x="184.5" xlink:href="#m73d48dc047" y="182.216882"/>
     <use style="fill:#1f77b4;fill-opacity:0.15;stroke:#1f77b4;stroke-opacity:0.15;" x="184.5" xlink:href="#m73d48dc047" y="182.216882"/>
     <use style="fill:#1f77b4;fill-opacity:0.15;stroke:#1f77b4;stroke-opacity:0.15;" x="254.25" xlink:href="#m73d48dc047" y="119.425323"/>
     <use style="fill:#1f77b4;fill-opacity:0.15;stroke:#1f77b4;stroke-opacity:0.15;" x="254.25" xlink:href="#m73d48dc047" y="119.425323"/>
     <use style="fill:#1f77b4;fill-opacity:0.15;stroke:#1f77b4;stroke-opacity:0.15;" x="254.25" xlink:href="#m73d48dc047" y="119.425323"/>
     <use style="fill:#1f77b4;fill-opacity:0.15;stroke:#1f77b4;stroke-opacity:0.15;" x="254.25" xlink:href="#m73d48dc047" y="119.425323"/>
     <use style="fill:#1f77b4;fill-opacity:0.15;stroke:#1f77b4;stroke-opacity:0.15;" x="254.25" xlink:href="#m73d48dc047" y="119.425323"/>
     <use style="fill:#1f77b4;fill-opacity:0.15;stroke:#1f77b4;stroke-opacity:0.15;" x="254.25" xlink:href="#m73d48dc047" y="119.425323"/>
     <use style="fill:#1f77b4;fill-opacity:0.15;stroke:#1f77b4;stroke-opacity:0.15;" x="254.25" xlink:href="#m73d48dc047" y="119.425323"/>
     <use style="fill:#1f77b4;fill-opacity:0.15;stroke:#1f77b4;stroke-opacity:0.15;" x="254.25" xlink:href="#m73d48dc047" y="119.425323"/>
     <use style="fill:#1f77b4;fill-opacity:0.15;stroke:#1f77b4;stroke-opacity:0.15;" x="254.25" xlink:href="#m73d48dc047" y="119.425323"/>
     <use style="fill:#1f77b4;fill-opacity:0.15;stroke:#1f77b4;stroke-opacity:0.15;" x="254.25" xlink:href="#m73d48dc047" y="119.425323"/>
     <use style="fill:#1f77b4;fill-opacity:0.15;stroke:#1f77b4;stroke-opacity:0.15;" x="254.25" xlink:href="#m73d48dc047" y="119.425323"/>
     <use style="fill:#1f77b4;fill-opacity:0.15;stroke:#1f77b4;stroke-opacity:0.15;" x="254.25" xlink:href="#m73d48dc047" y="119.425323"/>
     <use style="fill:#1f77b4;fill-opacity:0.15;stroke:#1f77b4;stroke-opacity:0.15;" x="254.25" xlink:href="#m73d48dc047" y="119.425323"/>
     <use style="fill:#1f77b4;fill-opacity:0.15;stroke:#1f77b4;stroke-opacity:0.15;" x="254.25" xlink:href="#m73d48dc047" y="119.425323"/>
     <use style="fill:#1f77b4;fill-opacity:0.15;stroke:#1f77b4;stroke-opacity:0.15;" x="254.25" xlink:href="#m73d48dc047" y="119.425323"/>
     <use style="fill:#1f77b4;fill-opacity:0.15;stroke:#1f77b4;stroke-opacity:0.15;" x="254.25" xlink:href="#m73d48dc047" y="119.425323"/>
     <use style="fill:#1f77b4;fill-opacity:0.15;stroke:#1f77b4;stroke-opacity:0.15;" x="324" xlink:href="#m73d48dc047" y="56.633764"/>
     <use style="fill:#1f77b4;fill-opacity:0.15;stroke:#1f77b4;stroke-opacity:0.15;" x="324" xlink:href="#m73d48dc047" y="56.633764"/>
     <use style="fill:#1f77b4;fill-opacity:0.15;stroke:#1f77b4;stroke-opacity:0.15;" x="324" xlink:href="#m73d48dc047" y="56.633764"/>
     <use style="fill:#1f77b4;fill-opacity:0.15;stroke:#1f77b4;stroke-opacity:0.15;" x="324" xlink:href="#m73d48dc047" y="56.633764"/>
     <use style="fill:#1f77b4;fill-opacity:0.15;stroke:#1f77b4;stroke-opacity:0.15;" x="324" xlink:href="#m73d48dc047" y="56.633764"/>
     <use style="fill:#1f77b4;fill-opacity:0.15;stroke:#1f77b4;stroke-opacity:0.15;" x="324" xlink:href="#m73d48dc047" y="56.633764"/>
     <use style="fill:#1f77b4;fill-opacity:0.15;stroke:#1f77b4;stroke-opacity:0.15;" x="324" xlink:href="#m73d48dc047" y="56.633764"/>
     <use style="fill:#1f77b4;fill-opacity:0.15;stroke:#1f77b4;stroke-opacity:0.15;" x="324" xlink:href="#m73d48dc047" y="56.633764"/>
     <use style="fill:#1f77b4;fill-opacity:0.15;stroke:#1f77b4;stroke-opacity:0.15;" x="324" xlink:href="#m73d48dc047" y="56.633764"/>
     <use style="fill:#1f77b4;fill-opacity:0.15;stroke:#1f77b4;stroke-opacity:0.15;" x="324" xlink:href="#m73d48dc047" y="56.633764"/>
     <use style="fill:#1f77b4;fill-opacity:0.15;stroke:#1f77b4;stroke-opacity:0.15;" x="324" xlink:href="#m73d48dc047" y="56.633764"/>
     <use style="fill:#1f77b4;fill-opacity:0.15;stroke:#1f77b4;stroke-opacity:0.15;" x="324" xlink:href="#m73d48dc047" y="56.633764"/>
     <use style="fill:#1f77b4;fill-opacity:0.15;stroke:#1f77b4;stroke-opacity:0.15;" x="324" xlink:href="#m73d48dc047" y="56.633764"/>
     <use style="fill:#1f77b4;fill-opacity:0.15;stroke:#1f77b4;stroke-opacity:0.15;" x="324" xlink:href="#m73d48dc047" y="56.633764"/>
     <use style="fill:#1f77b4;fill-opacity:0.15;stroke:#1f77b4;stroke-opacity:0.15;" x="324" xlink:href="#m73d48dc047" y="56.633764"/>
     <use style="fill:#1f77b4;fill-opacity:0.15;stroke:#1f77b4;stroke-opacity:0.15;" x="324" xlink:href="#m73d48dc047" y="56.633764"/>
     <use style="fill:#1f77b4;fill-opacity:0.15;stroke:#1f77b4;stroke-opacity:0.15;" x="324" xlink:href="#m73d48dc047" y="56.633764"/>
    </g>
   </g>
   <g id="PolyCollection_1">
    <path clip-path="url(#pb040ca9e00)" d="M 45 292.988201 
L 45 307.539622 
L 47.818182 305.027487 
L 50.636364 302.515353 
L 53.454545 300.002651 
L 56.272727 297.489935 
L 59.090909 294.977219 
L 61.909091 292.459367 
L 64.727273 289.937267 
L 67.545455 287.415168 
L 70.363636 284.893069 
L 73.181818 282.37097 
L 76 279.848871 
L 78.818182 277.326771 
L 81.636364 274.804672 
L 84.454545 272.282573 
L 87.272727 269.760474 
L 90.090909 267.238375 
L 92.909091 264.716275 
L 95.727273 262.194176 
L 98.545455 259.672077 
L 101.363636 257.15865 
L 104.181818 254.653258 
L 107 252.147866 
L 109.818182 249.642474 
L 112.636364 247.137082 
L 115.454545 244.63169 
L 118.272727 242.126298 
L 121.090909 239.620906 
L 123.909091 237.115514 
L 126.727273 234.610122 
L 129.545455 232.106196 
L 132.363636 229.607076 
L 135.181818 227.107956 
L 138 224.608835 
L 140.818182 222.109715 
L 143.636364 219.603218 
L 146.454545 217.112098 
L 149.272727 214.613508 
L 152.090909 212.109936 
L 154.909091 209.611627 
L 157.727273 207.099923 
L 160.545455 204.58822 
L 163.363636 202.076517 
L 166.181818 199.564814 
L 169 197.053555 
L 171.818182 194.556709 
L 174.636364 192.059717 
L 177.454545 189.56217 
L 180.272727 187.064623 
L 183.090909 184.554882 
L 185.909091 182.062417 
L 188.727273 179.569626 
L 191.545455 177.069865 
L 194.363636 174.600568 
L 197.181818 172.113165 
L 200 169.625345 
L 202.818182 167.136481 
L 205.636364 164.650152 
L 208.454545 162.164024 
L 211.272727 159.683621 
L 214.090909 157.259235 
L 216.909091 154.787291 
L 219.727273 152.3384 
L 222.545455 149.854637 
L 225.363636 147.395815 
L 228.181818 144.960276 
L 231 142.467682 
L 233.818182 140.012109 
L 236.636364 137.59877 
L 239.454545 135.093332 
L 242.272727 132.612368 
L 245.090909 130.11465 
L 247.909091 127.699209 
L 250.727273 125.279704 
L 253.545455 122.813876 
L 256.363636 120.317367 
L 259.181818 117.902191 
L 262 115.461498 
L 264.818182 113.0333 
L 267.636364 110.544454 
L 270.454545 108.167222 
L 273.272727 105.752271 
L 276.090909 103.35609 
L 278.909091 100.928938 
L 281.727273 98.481488 
L 284.545455 96.019769 
L 287.363636 93.585867 
L 290.181818 91.139135 
L 293 88.691685 
L 295.818182 86.264408 
L 298.636364 83.88687 
L 301.454545 81.538207 
L 304.272727 79.116003 
L 307.090909 76.69073 
L 309.909091 74.297142 
L 312.727273 71.911661 
L 315.545455 69.532916 
L 318.363636 67.154171 
L 321.181818 64.779408 
L 324 62.479986 
L 324 55.8 
L 324 55.8 
L 321.181818 58.309093 
L 318.363636 60.804227 
L 315.545455 63.297645 
L 312.727273 65.756039 
L 309.909091 68.212617 
L 307.090909 70.633724 
L 304.272727 73.071193 
L 301.454545 75.507449 
L 298.636364 77.977833 
L 295.818182 80.441753 
L 293 82.878888 
L 290.181818 85.30598 
L 287.363636 87.712753 
L 284.545455 90.143212 
L 281.727273 92.596433 
L 278.909091 95.07397 
L 276.090909 97.536726 
L 273.272727 99.956369 
L 270.454545 102.409406 
L 267.636364 104.862733 
L 264.818182 107.316061 
L 262 109.769388 
L 259.181818 112.216797 
L 256.363636 114.665593 
L 253.545455 117.11052 
L 250.727273 119.573032 
L 247.909091 121.992397 
L 245.090909 124.38681 
L 242.272727 126.78096 
L 239.454545 129.175109 
L 236.636364 131.575154 
L 233.818182 134.018596 
L 231 136.412376 
L 228.181818 138.83193 
L 225.363636 141.274047 
L 222.545455 143.641384 
L 219.727273 146.03462 
L 216.909091 148.443051 
L 214.090909 150.851741 
L 211.272727 153.261435 
L 208.454545 155.658317 
L 205.636364 158.025271 
L 202.818182 160.42901 
L 200 162.851741 
L 197.181818 165.203393 
L 194.363636 167.57894 
L 191.545455 169.995665 
L 188.727273 172.366175 
L 185.909091 174.739465 
L 183.090909 177.155758 
L 180.272727 179.54431 
L 177.454545 181.91276 
L 174.636364 184.296333 
L 171.818182 186.661224 
L 169 189.056951 
L 166.181818 191.428221 
L 163.363636 193.805901 
L 160.545455 196.197026 
L 157.727273 198.561098 
L 154.909091 200.890503 
L 152.090909 203.277881 
L 149.272727 205.645405 
L 146.454545 208.080998 
L 143.636364 210.478512 
L 140.818182 212.859337 
L 138 215.239397 
L 135.181818 217.618803 
L 132.363636 219.972092 
L 129.545455 222.300795 
L 126.727273 224.626771 
L 123.909091 226.957707 
L 121.090909 229.321667 
L 118.272727 231.659734 
L 115.454545 234.011776 
L 112.636364 236.370632 
L 109.818182 238.720347 
L 107 241.071516 
L 104.181818 243.448962 
L 101.363636 245.84909 
L 98.545455 248.249218 
L 95.727273 250.606994 
L 92.909091 252.959246 
L 90.090909 255.311498 
L 87.272727 257.66375 
L 84.454545 260.016002 
L 81.636364 262.36872 
L 78.818182 264.736768 
L 76 267.083641 
L 73.181818 269.424845 
L 70.363636 271.775343 
L 67.545455 274.126907 
L 64.727273 276.478471 
L 61.909091 278.830034 
L 59.090909 281.181598 
L 56.272727 283.533771 
L 53.454545 285.886152 
L 50.636364 288.242006 
L 47.818182 290.615103 
L 45 292.988201 
z
" style="fill:#1f77b4;fill-opacity:0.15;"/>
   </g>
   <g id="matplotlib.axis_1">
    <g id="xtick_1">
     <g id="line2d_1">
      <defs>
       <path d="M 0 0 
L 0 3.5 
" id="me50dba94da" style="stroke:#000000;stroke-width:0.8;"/>
      </defs>
      <g>
       <use style="stroke:#000000;stroke-width:0.8;" x="45" xlink:href="#me50dba94da" y="320.4"/>
      </g>
     </g>
     <g id="text_1">
      <!-- 0.0 -->
      <defs>
       <path d="M 31.78125 66.40625 
Q 24.171875 66.40625 20.328125 58.90625 
Q 16.5 51.421875 16.5 36.375 
Q 16.5 21.390625 20.328125 13.890625 
Q 24.171875 6.390625 31.78125 6.390625 
Q 39.453125 6.390625 43.28125 13.890625 
Q 47.125 21.390625 47.125 36.375 
Q 47.125 51.421875 43.28125 58.90625 
Q 39.453125 66.40625 31.78125 66.40625 
z
M 31.78125 74.21875 
Q 44.046875 74.21875 50.515625 64.515625 
Q 56.984375 54.828125 56.984375 36.375 
Q 56.984375 17.96875 50.515625 8.265625 
Q 44.046875 -1.421875 31.78125 -1.421875 
Q 19.53125 -1.421875 13.0625 8.265625 
Q 6.59375 17.96875 6.59375 36.375 
Q 6.59375 54.828125 13.0625 64.515625 
Q 19.53125 74.21875 31.78125 74.21875 
z
" id="DejaVuSans-48"/>
       <path d="M 10.6875 12.40625 
L 21 12.40625 
L 21 0 
L 10.6875 0 
z
" id="DejaVuSans-46"/>
      </defs>
      <g transform="translate(37.048437 334.998438)scale(0.1 -0.1)">
       <use xlink:href="#DejaVuSans-48"/>
       <use x="63.623047" xlink:href="#DejaVuSans-46"/>
       <use x="95.410156" xlink:href="#DejaVuSans-48"/>
      </g>
     </g>
    </g>
    <g id="xtick_2">
     <g id="line2d_2">
      <g>
       <use style="stroke:#000000;stroke-width:0.8;" x="79.875" xlink:href="#me50dba94da" y="320.4"/>
      </g>
     </g>
     <g id="text_2">
      <!-- 0.5 -->
      <defs>
       <path d="M 10.796875 72.90625 
L 49.515625 72.90625 
L 49.515625 64.59375 
L 19.828125 64.59375 
L 19.828125 46.734375 
Q 21.96875 47.46875 24.109375 47.828125 
Q 26.265625 48.1875 28.421875 48.1875 
Q 40.625 48.1875 47.75 41.5 
Q 54.890625 34.8125 54.890625 23.390625 
Q 54.890625 11.625 47.5625 5.09375 
Q 40.234375 -1.421875 26.90625 -1.421875 
Q 22.3125 -1.421875 17.546875 -0.640625 
Q 12.796875 0.140625 7.71875 1.703125 
L 7.71875 11.625 
Q 12.109375 9.234375 16.796875 8.0625 
Q 21.484375 6.890625 26.703125 6.890625 
Q 35.15625 6.890625 40.078125 11.328125 
Q 45.015625 15.765625 45.015625 23.390625 
Q 45.015625 31 40.078125 35.4375 
Q 35.15625 39.890625 26.703125 39.890625 
Q 22.75 39.890625 18.8125 39.015625 
Q 14.890625 38.140625 10.796875 36.28125 
z
" id="DejaVuSans-53"/>
      </defs>
      <g transform="translate(71.923438 334.998438)scale(0.1 -0.1)">
       <use xlink:href="#DejaVuSans-48"/>
       <use x="63.623047" xlink:href="#DejaVuSans-46"/>
       <use x="95.410156" xlink:href="#DejaVuSans-53"/>
      </g>
     </g>
    </g>
    <g id="xtick_3">
     <g id="line2d_3">
      <g>
       <use style="stroke:#000000;stroke-width:0.8;" x="114.75" xlink:href="#me50dba94da" y="320.4"/>
      </g>
     </g>
     <g id="text_3">
      <!-- 1.0 -->
      <defs>
       <path d="M 12.40625 8.296875 
L 28.515625 8.296875 
L 28.515625 63.921875 
L 10.984375 60.40625 
L 10.984375 69.390625 
L 28.421875 72.90625 
L 38.28125 72.90625 
L 38.28125 8.296875 
L 54.390625 8.296875 
L 54.390625 0 
L 12.40625 0 
z
" id="DejaVuSans-49"/>
      </defs>
      <g transform="translate(106.798438 334.998438)scale(0.1 -0.1)">
       <use xlink:href="#DejaVuSans-49"/>
       <use x="63.623047" xlink:href="#DejaVuSans-46"/>
       <use x="95.410156" xlink:href="#DejaVuSans-48"/>
      </g>
     </g>
    </g>
    <g id="xtick_4">
     <g id="line2d_4">
      <g>
       <use style="stroke:#000000;stroke-width:0.8;" x="149.625" xlink:href="#me50dba94da" y="320.4"/>
      </g>
     </g>
     <g id="text_4">
      <!-- 1.5 -->
      <g transform="translate(141.673438 334.998438)scale(0.1 -0.1)">
       <use xlink:href="#DejaVuSans-49"/>
       <use x="63.623047" xlink:href="#DejaVuSans-46"/>
       <use x="95.410156" xlink:href="#DejaVuSans-53"/>
      </g>
     </g>
    </g>
    <g id="xtick_5">
     <g id="line2d_5">
      <g>
       <use style="stroke:#000000;stroke-width:0.8;" x="184.5" xlink:href="#me50dba94da" y="320.4"/>
      </g>
     </g>
     <g id="text_5">
      <!-- 2.0 -->
      <defs>
       <path d="M 19.1875 8.296875 
L 53.609375 8.296875 
L 53.609375 0 
L 7.328125 0 
L 7.328125 8.296875 
Q 12.9375 14.109375 22.625 23.890625 
Q 32.328125 33.6875 34.8125 36.53125 
Q 39.546875 41.84375 41.421875 45.53125 
Q 43.3125 49.21875 43.3125 52.78125 
Q 43.3125 58.59375 39.234375 62.25 
Q 35.15625 65.921875 28.609375 65.921875 
Q 23.96875 65.921875 18.8125 64.3125 
Q 13.671875 62.703125 7.8125 59.421875 
L 7.8125 69.390625 
Q 13.765625 71.78125 18.9375 73 
Q 24.125 74.21875 28.421875 74.21875 
Q 39.75 74.21875 46.484375 68.546875 
Q 53.21875 62.890625 53.21875 53.421875 
Q 53.21875 48.921875 51.53125 44.890625 
Q 49.859375 40.875 45.40625 35.40625 
Q 44.1875 33.984375 37.640625 27.21875 
Q 31.109375 20.453125 19.1875 8.296875 
z
" id="DejaVuSans-50"/>
      </defs>
      <g transform="translate(176.548438 334.998438)scale(0.1 -0.1)">
       <use xlink:href="#DejaVuSans-50"/>
       <use x="63.623047" xlink:href="#DejaVuSans-46"/>
       <use x="95.410156" xlink:href="#DejaVuSans-48"/>
      </g>
     </g>
    </g>
    <g id="xtick_6">
     <g id="line2d_6">
      <g>
       <use style="stroke:#000000;stroke-width:0.8;" x="219.375" xlink:href="#me50dba94da" y="320.4"/>
      </g>
     </g>
     <g id="text_6">
      <!-- 2.5 -->
      <g transform="translate(211.423438 334.998438)scale(0.1 -0.1)">
       <use xlink:href="#DejaVuSans-50"/>
       <use x="63.623047" xlink:href="#DejaVuSans-46"/>
       <use x="95.410156" xlink:href="#DejaVuSans-53"/>
      </g>
     </g>
    </g>
    <g id="xtick_7">
     <g id="line2d_7">
      <g>
       <use style="stroke:#000000;stroke-width:0.8;" x="254.25" xlink:href="#me50dba94da" y="320.4"/>
      </g>
     </g>
     <g id="text_7">
      <!-- 3.0 -->
      <defs>
       <path d="M 40.578125 39.3125 
Q 47.65625 37.796875 51.625 33 
Q 55.609375 28.21875 55.609375 21.1875 
Q 55.609375 10.40625 48.1875 4.484375 
Q 40.765625 -1.421875 27.09375 -1.421875 
Q 22.515625 -1.421875 17.65625 -0.515625 
Q 12.796875 0.390625 7.625 2.203125 
L 7.625 11.71875 
Q 11.71875 9.328125 16.59375 8.109375 
Q 21.484375 6.890625 26.8125 6.890625 
Q 36.078125 6.890625 40.9375 10.546875 
Q 45.796875 14.203125 45.796875 21.1875 
Q 45.796875 27.640625 41.28125 31.265625 
Q 36.765625 34.90625 28.71875 34.90625 
L 20.21875 34.90625 
L 20.21875 43.015625 
L 29.109375 43.015625 
Q 36.375 43.015625 40.234375 45.921875 
Q 44.09375 48.828125 44.09375 54.296875 
Q 44.09375 59.90625 40.109375 62.90625 
Q 36.140625 65.921875 28.71875 65.921875 
Q 24.65625 65.921875 20.015625 65.03125 
Q 15.375 64.15625 9.8125 62.3125 
L 9.8125 71.09375 
Q 15.4375 72.65625 20.34375 73.4375 
Q 25.25 74.21875 29.59375 74.21875 
Q 40.828125 74.21875 47.359375 69.109375 
Q 53.90625 64.015625 53.90625 55.328125 
Q 53.90625 49.265625 50.4375 45.09375 
Q 46.96875 40.921875 40.578125 39.3125 
z
" id="DejaVuSans-51"/>
      </defs>
      <g transform="translate(246.298438 334.998438)scale(0.1 -0.1)">
       <use xlink:href="#DejaVuSans-51"/>
       <use x="63.623047" xlink:href="#DejaVuSans-46"/>
       <use x="95.410156" xlink:href="#DejaVuSans-48"/>
      </g>
     </g>
    </g>
    <g id="xtick_8">
     <g id="line2d_8">
      <g>
       <use style="stroke:#000000;stroke-width:0.8;" x="289.125" xlink:href="#me50dba94da" y="320.4"/>
      </g>
     </g>
     <g id="text_8">
      <!-- 3.5 -->
      <g transform="translate(281.173437 334.998438)scale(0.1 -0.1)">
       <use xlink:href="#DejaVuSans-51"/>
       <use x="63.623047" xlink:href="#DejaVuSans-46"/>
       <use x="95.410156" xlink:href="#DejaVuSans-53"/>
      </g>
     </g>
    </g>
    <g id="xtick_9">
     <g id="line2d_9">
      <g>
       <use style="stroke:#000000;stroke-width:0.8;" x="324" xlink:href="#me50dba94da" y="320.4"/>
      </g>
     </g>
     <g id="text_9">
      <!-- 4.0 -->
      <defs>
       <path d="M 37.796875 64.3125 
L 12.890625 25.390625 
L 37.796875 25.390625 
z
M 35.203125 72.90625 
L 47.609375 72.90625 
L 47.609375 25.390625 
L 58.015625 25.390625 
L 58.015625 17.1875 
L 47.609375 17.1875 
L 47.609375 0 
L 37.796875 0 
L 37.796875 17.1875 
L 4.890625 17.1875 
L 4.890625 26.703125 
z
" id="DejaVuSans-52"/>
      </defs>
      <g transform="translate(316.048437 334.998438)scale(0.1 -0.1)">
       <use xlink:href="#DejaVuSans-52"/>
       <use x="63.623047" xlink:href="#DejaVuSans-46"/>
       <use x="95.410156" xlink:href="#DejaVuSans-48"/>
      </g>
     </g>
    </g>
   </g>
   <g id="matplotlib.axis_2">
    <g id="ytick_1">
     <g id="line2d_10">
      <defs>
       <path d="M 0 0 
L -3.5 0 
" id="m720fadf53a" style="stroke:#000000;stroke-width:0.8;"/>
      </defs>
      <g>
       <use style="stroke:#000000;stroke-width:0.8;" x="45" xlink:href="#m720fadf53a" y="307.8"/>
      </g>
     </g>
     <g id="text_10">
      <!-- 0.0 -->
      <g transform="translate(22.096875 311.599219)scale(0.1 -0.1)">
       <use xlink:href="#DejaVuSans-48"/>
       <use x="63.623047" xlink:href="#DejaVuSans-46"/>
       <use x="95.410156" xlink:href="#DejaVuSans-48"/>
      </g>
     </g>
    </g>
    <g id="ytick_2">
     <g id="line2d_11">
      <g>
       <use style="stroke:#000000;stroke-width:0.8;" x="45" xlink:href="#m720fadf53a" y="276.40422"/>
      </g>
     </g>
     <g id="text_11">
      <!-- 0.5 -->
      <g transform="translate(22.096875 280.203439)scale(0.1 -0.1)">
       <use xlink:href="#DejaVuSans-48"/>
       <use x="63.623047" xlink:href="#DejaVuSans-46"/>
       <use x="95.410156" xlink:href="#DejaVuSans-53"/>
      </g>
     </g>
    </g>
    <g id="ytick_3">
     <g id="line2d_12">
      <g>
       <use style="stroke:#000000;stroke-width:0.8;" x="45" xlink:href="#m720fadf53a" y="245.008441"/>
      </g>
     </g>
     <g id="text_12">
      <!-- 1.0 -->
      <g transform="translate(22.096875 248.80766)scale(0.1 -0.1)">
       <use xlink:href="#DejaVuSans-49"/>
       <use x="63.623047" xlink:href="#DejaVuSans-46"/>
       <use x="95.410156" xlink:href="#DejaVuSans-48"/>
      </g>
     </g>
    </g>
    <g id="ytick_4">
     <g id="line2d_13">
      <g>
       <use style="stroke:#000000;stroke-width:0.8;" x="45" xlink:href="#m720fadf53a" y="213.612661"/>
      </g>
     </g>
     <g id="text_13">
      <!-- 1.5 -->
      <g transform="translate(22.096875 217.41188)scale(0.1 -0.1)">
       <use xlink:href="#DejaVuSans-49"/>
       <use x="63.623047" xlink:href="#DejaVuSans-46"/>
       <use x="95.410156" xlink:href="#DejaVuSans-53"/>
      </g>
     </g>
    </g>
    <g id="ytick_5">
     <g id="line2d_14">
      <g>
       <use style="stroke:#000000;stroke-width:0.8;" x="45" xlink:href="#m720fadf53a" y="182.216882"/>
      </g>
     </g>
     <g id="text_14">
      <!-- 2.0 -->
      <g transform="translate(22.096875 186.016101)scale(0.1 -0.1)">
       <use xlink:href="#DejaVuSans-50"/>
       <use x="63.623047" xlink:href="#DejaVuSans-46"/>
       <use x="95.410156" xlink:href="#DejaVuSans-48"/>
      </g>
     </g>
    </g>
    <g id="ytick_6">
     <g id="line2d_15">
      <g>
       <use style="stroke:#000000;stroke-width:0.8;" x="45" xlink:href="#m720fadf53a" y="150.821102"/>
      </g>
     </g>
     <g id="text_15">
      <!-- 2.5 -->
      <g transform="translate(22.096875 154.620321)scale(0.1 -0.1)">
       <use xlink:href="#DejaVuSans-50"/>
       <use x="63.623047" xlink:href="#DejaVuSans-46"/>
       <use x="95.410156" xlink:href="#DejaVuSans-53"/>
      </g>
     </g>
    </g>
    <g id="ytick_7">
     <g id="line2d_16">
      <g>
       <use style="stroke:#000000;stroke-width:0.8;" x="45" xlink:href="#m720fadf53a" y="119.425323"/>
      </g>
     </g>
     <g id="text_16">
      <!-- 3.0 -->
      <g transform="translate(22.096875 123.224542)scale(0.1 -0.1)">
       <use xlink:href="#DejaVuSans-51"/>
       <use x="63.623047" xlink:href="#DejaVuSans-46"/>
       <use x="95.410156" xlink:href="#DejaVuSans-48"/>
      </g>
     </g>
    </g>
    <g id="ytick_8">
     <g id="line2d_17">
      <g>
       <use style="stroke:#000000;stroke-width:0.8;" x="45" xlink:href="#m720fadf53a" y="88.029543"/>
      </g>
     </g>
     <g id="text_17">
      <!-- 3.5 -->
      <g transform="translate(22.096875 91.828762)scale(0.1 -0.1)">
       <use xlink:href="#DejaVuSans-51"/>
       <use x="63.623047" xlink:href="#DejaVuSans-46"/>
       <use x="95.410156" xlink:href="#DejaVuSans-53"/>
      </g>
     </g>
    </g>
    <g id="ytick_9">
     <g id="line2d_18">
      <g>
       <use style="stroke:#000000;stroke-width:0.8;" x="45" xlink:href="#m720fadf53a" y="56.633764"/>
      </g>
     </g>
     <g id="text_18">
      <!-- 4.0 -->
      <g transform="translate(22.096875 60.432983)scale(0.1 -0.1)">
       <use xlink:href="#DejaVuSans-52"/>
       <use x="63.623047" xlink:href="#DejaVuSans-46"/>
       <use x="95.410156" xlink:href="#DejaVuSans-48"/>
      </g>
     </g>
    </g>
   </g>
   <g id="line2d_19">
    <path clip-path="url(#pb040ca9e00)" d="M 45 300.626425 
L 47.818182 298.185579 
L 50.636364 295.744734 
L 53.454545 293.303888 
L 56.272727 290.863042 
L 59.090909 288.422197 
L 61.909091 285.981351 
L 64.727273 283.540505 
L 67.545455 281.09966 
L 70.363636 278.658814 
L 73.181818 276.217968 
L 76 273.777123 
L 78.818182 271.336277 
L 81.636364 268.895431 
L 84.454545 266.454586 
L 87.272727 264.01374 
L 90.090909 261.572894 
L 92.909091 259.132049 
L 95.727273 256.691203 
L 98.545455 254.250357 
L 101.363636 251.809512 
L 104.181818 249.368666 
L 107 246.92782 
L 109.818182 244.486975 
L 112.636364 242.046129 
L 115.454545 239.605283 
L 118.272727 237.164437 
L 121.090909 234.723592 
L 123.909091 232.282746 
L 126.727273 229.8419 
L 129.545455 227.401055 
L 132.363636 224.960209 
L 135.181818 222.519363 
L 138 220.078518 
L 140.818182 217.637672 
L 143.636364 215.196826 
L 146.454545 212.755981 
L 149.272727 210.315135 
L 152.090909 207.874289 
L 154.909091 205.433444 
L 157.727273 202.992598 
L 160.545455 200.551752 
L 163.363636 198.110907 
L 166.181818 195.670061 
L 169 193.229215 
L 171.818182 190.78837 
L 174.636364 188.347524 
L 177.454545 185.906678 
L 180.272727 183.465833 
L 183.090909 181.024987 
L 185.909091 178.584141 
L 188.727273 176.143296 
L 191.545455 173.70245 
L 194.363636 171.261604 
L 197.181818 168.820759 
L 200 166.379913 
L 202.818182 163.939067 
L 205.636364 161.498222 
L 208.454545 159.057376 
L 211.272727 156.61653 
L 214.090909 154.175685 
L 216.909091 151.734839 
L 219.727273 149.293993 
L 222.545455 146.853148 
L 225.363636 144.412302 
L 228.181818 141.971456 
L 231 139.530611 
L 233.818182 137.089765 
L 236.636364 134.648919 
L 239.454545 132.208074 
L 242.272727 129.767228 
L 245.090909 127.326382 
L 247.909091 124.885537 
L 250.727273 122.444691 
L 253.545455 120.003845 
L 256.363636 117.563 
L 259.181818 115.122154 
L 262 112.681308 
L 264.818182 110.240463 
L 267.636364 107.799617 
L 270.454545 105.358771 
L 273.272727 102.917926 
L 276.090909 100.47708 
L 278.909091 98.036234 
L 281.727273 95.595389 
L 284.545455 93.154543 
L 287.363636 90.713697 
L 290.181818 88.272852 
L 293 85.832006 
L 295.818182 83.39116 
L 298.636364 80.950315 
L 301.454545 78.509469 
L 304.272727 76.068623 
L 307.090909 73.627778 
L 309.909091 71.186932 
L 312.727273 68.746086 
L 315.545455 66.305241 
L 318.363636 63.864395 
L 321.181818 61.423549 
L 324 58.982704 
" style="fill:none;stroke:#1f77b4;stroke-linecap:square;stroke-width:2.25;"/>
   </g>
   <g id="patch_3">
    <path d="M 45 320.4 
L 45 43.2 
" style="fill:none;stroke:#000000;stroke-linecap:square;stroke-linejoin:miter;stroke-width:0.8;"/>
   </g>
   <g id="patch_4">
    <path d="M 324 320.4 
L 324 43.2 
" style="fill:none;stroke:#000000;stroke-linecap:square;stroke-linejoin:miter;stroke-width:0.8;"/>
   </g>
   <g id="patch_5">
    <path d="M 45 320.4 
L 324 320.4 
" style="fill:none;stroke:#000000;stroke-linecap:square;stroke-linejoin:miter;stroke-width:0.8;"/>
   </g>
   <g id="patch_6">
    <path d="M 45 43.2 
L 324 43.2 
" style="fill:none;stroke:#000000;stroke-linecap:square;stroke-linejoin:miter;stroke-width:0.8;"/>
   </g>
  </g>
 </g>
 <defs>
  <clipPath id="pb040ca9e00">
   <rect height="277.2" width="279" x="45" y="43.2"/>
  </clipPath>
 </defs>
</svg>
